<svg xmlns="http://www.w3.org/2000/svg" xmlns:xlink="http://www.w3.org/1999/xlink" width="500" height="274" onload="init(evt)" version="1.1" viewBox="0 0 500 274"><defs><linearGradient id="background" x1="0" x2="0" y1="0" y2="1"><stop offset="5%" stop-color="#f8f8f8"/><stop offset="95%" stop-color="#e8e8e8"/></linearGradient></defs><style type="text/css">.func_g:hover{stroke:#000;stroke-width:.5}</style><script type="text/ecmascript"><![CDATA[
	var details;
	function init(evt) { details = document.getElementById("details").firstChild; }
	function s(info) { details.nodeValue = "Function: " + info; }
	function c() { details.nodeValue = ' '; }
]]></script><rect width="500" height="274" x="0" y="0" fill="url(#background)"/><text x="250" y="24" fill="#000" font-family="Verdana" font-size="17" text-anchor="middle">FS I/O Time Flame Graph</text><g class="func_g" onmouseout="c()" onmouseover="s('gzip`flush_outbuf (224 ms, 65.52%)')"><title>gzip`flush_outbuf (224 ms, 65.52%)</title><rect width="314.7" height="15" x="163.6" y="81" fill="#5E5EE3" rx="2" ry="2"/><text x="166.598" y="91.5" fill="#000" font-family="Verdana" font-size="12">gzip`flush_outbuf</text></g><g class="func_g" onmouseout="c()" onmouseover="s('tail (2 ms, 0.58%)')"><title>tail (2 ms, 0.58%)</title><rect width="2.9" height="15" x="478.4" y="209" fill="#5858D7" rx="2" ry="2"/></g><g class="func_g" onmouseout="c()" onmouseover="s('gzip`send_bits (2 ms, 0.58%)')"><title>gzip`send_bits (2 ms, 0.58%)</title><rect width="2.7" height="15" x="160.9" y="81" fill="#7B7BDF" rx="2" ry="2"/></g><g class="func_g" onmouseout="c()" onmouseover="s('gzip`copy_block (224 ms, 65.52%)')"><title>gzip`copy_block (224 ms, 65.52%)</title><rect width="314.7" height="15" x="163.6" y="97" fill="#7070E2" rx="2" ry="2"/><text x="166.57" y="107.5" fill="#000" font-family="Verdana" font-size="12">gzip`copy_block</text></g><g class="func_g" onmouseout="c()" onmouseover="s('gzip`flush_outbuf (2 ms, 0.58%)')"><title>gzip`flush_outbuf (2 ms, 0.58%)</title><rect width="2.7" height="15" x="160.9" y="65" fill="#6363C9" rx="2" ry="2"/></g><g class="func_g" onmouseout="c()" onmouseover="s('libc.so.1`_filbuf (1 ms, 0.29%)')"><title>libc.so.1`_filbuf (1 ms, 0.29%)</title><rect width="1.3" height="15" x="480" y="129" fill="#8181D3" rx="2" ry="2"/></g><g class="func_g" onmouseout="c()" onmouseover="s('zoneadmd`mcap_zone (6 ms, 1.75%)')"><title>zoneadmd`mcap_zone (6 ms, 1.75%)</title><rect width="8.7" height="15" x="481.3" y="161" fill="#5050EA" rx="2" ry="2"/></g><g class="func_g" onmouseout="c()" onmouseover="s('tail`_start (2 ms, 0.58%)')"><title>tail`_start (2 ms, 0.58%)</title><rect width="2.9" height="15" x="478.4" y="193" fill="#5454DC" rx="2" ry="2"/></g><g class="func_g" onmouseout="c()" onmouseover="s('zoneadmd`pageout_mapping (2 ms, 0.58%)')"><title>zoneadmd`pageout_mapping (2 ms, 0.58%)</title><rect width="2.8" height="15" x="487.2" y="129" fill="#6A6AEF" rx="2" ry="2"/></g><g class="func_g" onmouseout="c()" onmouseover="s('libc.so.1`_thrp_setup (6 ms, 1.75%)')"><title>libc.so.1`_thrp_setup (6 ms, 1.75%)</title><rect width="8.7" height="15" x="481.3" y="177" fill="#5A5ADE" rx="2" ry="2"/></g><g class="func_g" onmouseout="c()" onmouseover="s('gzip`fill_window (108 ms, 31.59%)')"><title>gzip`fill_window (108 ms, 31.59%)</title><rect width="150.9" height="15" x="10" y="113" fill="#6A6AC2" rx="2" ry="2"/><text x="13" y="123.5" fill="#000" font-family="Verdana" font-size="12">gzip`fill_window</text></g><g class="func_g" onmouseout="c()" onmouseover="s('gzip`file_read (108 ms, 31.59%)')"><title>gzip`file_read (108 ms, 31.59%)</title><rect width="150.9" height="15" x="10" y="97" fill="#6161CD" rx="2" ry="2"/><text x="13" y="107.5" fill="#000" font-family="Verdana" font-size="12">gzip`file_read</text></g><g class="func_g" onmouseout="c()" onmouseover="s('libc.so.1`_syscall6 (1 ms, 0.29%)')"><title>libc.so.1`_syscall6 (1 ms, 0.29%)</title><rect width="1" height="15" x="486.2" y="113" fill="#7D7DD5" rx="2" ry="2"/></g><g class="func_g" onmouseout="c()" onmouseover="s('libc.so.1`__write (2 ms, 0.58%)')"><title>libc.so.1`__write (2 ms, 0.58%)</title><rect width="2.7" height="15" x="160.9" y="33" fill="#7070F3" rx="2" ry="2"/></g><g class="func_g" onmouseout="c()" onmouseover="s('all (342 ms, 100%)')"><title>all (342 ms, 100%)</title><rect width="480" height="15" x="10" y="225" fill="#5D5DD1" rx="2" ry="2"/></g><g class="func_g" onmouseout="c()" onmouseover="s('libproc.so.1`Psyscall (2 ms, 0.58%)')"><title>libproc.so.1`Psyscall (2 ms, 0.58%)</title><rect width="2.8" height="15" x="487.2" y="97" fill="#5F5FC8" rx="2" ry="2"/></g><g class="func_g" onmouseout="c()" onmouseover="s('gzip`flush_block (226 ms, 66.10%)')"><title>gzip`flush_block (226 ms, 66.10%)</title><rect width="317.4" height="15" x="160.9" y="113" fill="#77E" rx="2" ry="2"/><text x="163.934" y="123.5" fill="#000" font-family="Verdana" font-size="12">gzip`flush_block</text></g><g class="func_g" onmouseout="c()" onmouseover="s('gzip`deflate (334 ms, 97.69%)')"><title>gzip`deflate (334 ms, 97.69%)</title><rect width="468.3" height="15" x="10" y="129" fill="#6363DC" rx="2" ry="2"/><text x="13" y="139.5" fill="#000" font-family="Verdana" font-size="12">gzip`deflate</text></g><g class="func_g" onmouseout="c()" onmouseover="s('gzip`main (334 ms, 97.69%)')"><title>gzip`main (334 ms, 97.69%)</title><rect width="468.3" height="15" x="10" y="177" fill="#5E5EED" rx="2" ry="2"/><text x="13" y="187.5" fill="#000" font-family="Verdana" font-size="12">gzip`main</text></g><g class="func_g" onmouseout="c()" onmouseover="s('libc.so.1`__write (224 ms, 65.52%)')"><title>libc.so.1`__write (224 ms, 65.52%)</title><rect width="314.7" height="15" x="163.6" y="49" fill="#8686C7" rx="2" ry="2"/><text x="166.598" y="59.5" fill="#000" font-family="Verdana" font-size="12">libc.so.1`__write</text></g><g class="func_g" onmouseout="c()" onmouseover="s('libc.so.1`__read (1 ms, 0.29%)')"><title>libc.so.1`__read (1 ms, 0.29%)</title><rect width="1.3" height="15" x="480" y="113" fill="#6A6AE6" rx="2" ry="2"/></g><g class="func_g" onmouseout="c()" onmouseover="s('tail`follow (2 ms, 0.58%)')"><title>tail`follow (2 ms, 0.58%)</title><rect width="2.9" height="15" x="478.4" y="161" fill="#5C5CE5" rx="2" ry="2"/></g><g class="func_g" onmouseout="c()" onmouseover="s('gzip (334 ms, 97.69%)')"><title>gzip (334 ms, 97.69%)</title><rect width="468.3" height="15" x="10" y="209" fill="#6060CD" rx="2" ry="2"/><text x="13" y="219.5" fill="#000" font-family="Verdana" font-size="12">gzip</text></g><g class="func_g" onmouseout="c()" onmouseover="s('gzip`write_buf (224 ms, 65.52%)')"><title>gzip`write_buf (224 ms, 65.52%)</title><rect width="314.7" height="15" x="163.6" y="65" fill="#5656EC" rx="2" ry="2"/><text x="166.598" y="75.5" fill="#000" font-family="Verdana" font-size="12">gzip`write_buf</text></g><g class="func_g" onmouseout="c()" onmouseover="s('libc.so.1`__read (108 ms, 31.59%)')"><title>libc.so.1`__read (108 ms, 31.59%)</title><rect width="150.9" height="15" x="10" y="81" fill="#5E5ED3" rx="2" ry="2"/><text x="13" y="91.5" fill="#000" font-family="Verdana" font-size="12">libc.so.1`__read</text></g><g class="func_g" onmouseout="c()" onmouseover="s('zoneadmd`pageout_process (6 ms, 1.75%)')"><title>zoneadmd`pageout_process (6 ms, 1.75%)</title><rect width="8.7" height="15" x="481.3" y="145" fill="#5353C0" rx="2" ry="2"/></g><g class="func_g" onmouseout="c()" onmouseover="s('libproc.so.1`pr_memcntl (2 ms, 0.58%)')"><title>libproc.so.1`pr_memcntl (2 ms, 0.58%)</title><rect width="2.8" height="15" x="487.2" y="113" fill="#6F6FBE" rx="2" ry="2"/></g><g class="func_g" onmouseout="c()" onmouseover="s('tail`main (2 ms, 0.58%)')"><title>tail`main (2 ms, 0.58%)</title><rect width="2.9" height="15" x="478.4" y="177" fill="#8B8BC4" rx="2" ry="2"/></g><g class="func_g" onmouseout="c()" onmouseover="s('libc.so.1`syscall (1 ms, 0.29%)')"><title>libc.so.1`syscall (1 ms, 0.29%)</title><rect width="1.6" height="15" x="478.4" y="145" fill="#6F6FBE" rx="2" ry="2"/></g><g class="func_g" onmouseout="c()" onmouseover="s('zoneadmd (6 ms, 1.75%)')"><title>zoneadmd (6 ms, 1.75%)</title><rect width="8.7" height="15" x="481.3" y="209" fill="#5858C3" rx="2" ry="2"/></g><g class="func_g" onmouseout="c()" onmouseover="s('gzip`zip (334 ms, 97.69%)')"><title>gzip`zip (334 ms, 97.69%)</title><rect width="468.3" height="15" x="10" y="145" fill="#7575EE" rx="2" ry="2"/><text x="13" y="155.5" fill="#000" font-family="Verdana" font-size="12">gzip`zip</text></g><g class="func_g" onmouseout="c()" onmouseover="s('gzip`write_buf (2 ms, 0.58%)')"><title>gzip`write_buf (2 ms, 0.58%)</title><rect width="2.7" height="15" x="160.9" y="49" fill="#7474BE" rx="2" ry="2"/></g><g class="func_g" onmouseout="c()" onmouseover="s('gzip`_start (334 ms, 97.69%)')"><title>gzip`_start (334 ms, 97.69%)</title><rect width="468.3" height="15" x="10" y="193" fill="#8787F1" rx="2" ry="2"/><text x="13" y="203.5" fill="#000" font-family="Verdana" font-size="12">gzip`_start</text></g><g class="func_g" onmouseout="c()" onmouseover="s('zoneadmd`init_map (4 ms, 1.17%)')"><title>zoneadmd`init_map (4 ms, 1.17%)</title><rect width="5.9" height="15" x="481.3" y="129" fill="#5E5EEE" rx="2" ry="2"/></g><g class="func_g" onmouseout="c()" onmouseover="s('libc.so.1`__pread (2 ms, 0.58%)')"><title>libc.so.1`__pread (2 ms, 0.58%)</title><rect width="2.8" height="15" x="487.2" y="65" fill="#5959C7" rx="2" ry="2"/></g><g class="func_g" onmouseout="c()" onmouseover="s('libc.so.1`_lwp_start (6 ms, 1.75%)')"><title>libc.so.1`_lwp_start (6 ms, 1.75%)</title><rect width="8.7" height="15" x="481.3" y="193" fill="#8888C5" rx="2" ry="2"/></g><g class="func_g" onmouseout="c()" onmouseover="s('libproc.so.1`Pscantext (2 ms, 0.58%)')"><title>libproc.so.1`Pscantext (2 ms, 0.58%)</title><rect width="2.8" height="15" x="487.2" y="81" fill="#7676BF" rx="2" ry="2"/></g><g class="func_g" onmouseout="c()" onmouseover="s('libc.so.1`__read (3 ms, 0.88%)')"><title>libc.so.1`__read (3 ms, 0.88%)</title><rect width="4.9" height="15" x="481.3" y="113" fill="#8585CF" rx="2" ry="2"/></g><g class="func_g" onmouseout="c()" onmouseover="s('tail`show (1 ms, 0.29%)')"><title>tail`show (1 ms, 0.29%)</title><rect width="1.3" height="15" x="480" y="145" fill="#6D6DE5" rx="2" ry="2"/></g><g class="func_g" onmouseout="c()" onmouseover="s('gzip`compress_block (2 ms, 0.58%)')"><title>gzip`compress_block (2 ms, 0.58%)</title><rect width="2.7" height="15" x="160.9" y="97" fill="#7E7EF0" rx="2" ry="2"/></g><g class="func_g" onmouseout="c()" onmouseover="s('gzip`treat_file (334 ms, 97.69%)')"><title>gzip`treat_file (334 ms, 97.69%)</title><rect width="468.3" height="15" x="10" y="161" fill="#7E7EDA" rx="2" ry="2"/><text x="13" y="171.5" fill="#000" font-family="Verdana" font-size="12">gzip`treat_file</text></g></svg>
