<svg xmlns="http://www.w3.org/2000/svg" xmlns:xlink="http://www.w3.org/1999/xlink" width="1000" height="578" onload="init(evt)" version="1.1" viewBox="0 0 1000 578"><defs><linearGradient id="background" x1="0" x2="0" y1="0" y2="1"><stop offset="5%" stop-color="#f8f8f8"/><stop offset="95%" stop-color="#e8e8e8"/></linearGradient></defs><style type="text/css">.func_g:hover{stroke:#000;stroke-width:.5}</style><script type="text/ecmascript"><![CDATA[
	var details;
	function init(evt) { details = document.getElementById("details").firstChild; }
	function s(info) { details.nodeValue = "Function: " + info; }
	function c() { details.nodeValue = ' '; }
]]></script><rect width="1000" height="578" x="0" y="0" fill="url(#background)"/><text x="500" y="24" fill="#000" font-family="Verdana" font-size="17" text-anchor="middle">FS I/O Time Flame Graph</text><g class="func_g" onmouseout="c()" onmouseover="s('nss_dns.so.1`_nss_get_dns_ipnodes_name (0 ms, 0.00%)')"><title>nss_dns.so.1`_nss_get_dns_ipnodes_name (0 ms, 0.00%)</title><rect width=".3" height="15" x="838.7" y="369" fill="#6868CE" rx="2" ry="2"/></g><g class="func_g" onmouseout="c()" onmouseover="s('libresolv_joy.so.2`__res_vinit (0 ms, 0.00%)')"><title>libresolv_joy.so.2`__res_vinit (0 ms, 0.00%)</title><rect width=".2" height="15" x="838.7" y="321" fill="#5656E6" rx="2" ry="2"/></g><g class="func_g" onmouseout="c()" onmouseover="s('mysqld`make_join_statistics (733 ms, 75.47%)')"><title>mysqld`make_join_statistics (733 ms, 75.47%)</title><rect width="739.7" height="15" x="16.3" y="273" fill="#5353BF" rx="2" ry="2"/><text x="19.276" y="283.5" fill="#000" font-family="Verdana" font-size="12">mysqld`make_join_statistics</text></g><g class="func_g" onmouseout="c()" onmouseover="s('libc.so.1`__read (147 ms, 15.13%)')"><title>libc.so.1`__read (147 ms, 15.13%)</title><rect width="148.1" height="15" x="841.8" y="417" fill="#8181D3" rx="2" ry="2"/><text x="844.761" y="427.5" fill="#000" font-family="Verdana" font-size="12">libc.so.1`__read</text></g><g class="func_g" onmouseout="c()" onmouseover="s('mysqld`buf_page_get_gen (26 ms, 2.68%)')"><title>mysqld`buf_page_get_gen (26 ms, 2.68%)</title><rect width="26.5" height="15" x="247.3" y="145" fill="#5E5EE5" rx="2" ry="2"/><text x="250.273" y="155.5" fill="#000" font-family="Verdana" font-size="12">m..</text></g><g class="func_g" onmouseout="c()" onmouseover="s('mysqld (735 ms, 75.67%)')"><title>mysqld (735 ms, 75.67%)</title><rect width="741.2" height="15" x="15.3" y="513" fill="#8B8BE5" rx="2" ry="2"/><text x="18.316" y="523.5" fill="#000" font-family="Verdana" font-size="12">mysqld</text></g><g class="func_g" onmouseout="c()" onmouseover="s('mysqld`check_quick_select (255 ms, 26.25%)')"><title>mysqld`check_quick_select (255 ms, 26.25%)</title><rect width="257.5" height="15" x="16.3" y="225" fill="#5050E7" rx="2" ry="2"/><text x="19.276" y="235.5" fill="#000" font-family="Verdana" font-size="12">mysqld`check_quick_select</text></g><g class="func_g" onmouseout="c()" onmouseover="s('libc.so.1`__read (1 ms, 0.10%)')"><title>libc.so.1`__read (1 ms, 0.10%)</title><rect width=".8" height="15" x="840.8" y="417" fill="#7979CD" rx="2" ry="2"/></g><g class="func_g" onmouseout="c()" onmouseover="s('libc.so.1`getdents64 (0 ms, 0.00%)')"><title>libc.so.1`getdents64 (0 ms, 0.00%)</title><rect width=".2" height="15" x="841.6" y="433" fill="#5151DF" rx="2" ry="2"/></g><g class="func_g" onmouseout="c()" onmouseover="s('mysqld`os_file_pread (229 ms, 23.58%)')"><title>mysqld`os_file_pread (229 ms, 23.58%)</title><rect width="231" height="15" x="16.3" y="49" fill="#8686D0" rx="2" ry="2"/><text x="19.276" y="59.5" fill="#000" font-family="Verdana" font-size="12">mysqld`os_file_pread</text></g><g class="func_g" onmouseout="c()" onmouseover="s('mysqld`buf_read_page (26 ms, 2.68%)')"><title>mysqld`buf_read_page (26 ms, 2.68%)</title><rect width="26.5" height="15" x="247.3" y="129" fill="#5555C0" rx="2" ry="2"/><text x="250.273" y="139.5" fill="#000" font-family="Verdana" font-size="12">m..</text></g><g class="func_g" onmouseout="c()" onmouseover="s('mysqld`fil_io (229 ms, 23.58%)')"><title>mysqld`fil_io (229 ms, 23.58%)</title><rect width="231" height="15" x="16.3" y="81" fill="#6666D1" rx="2" ry="2"/><text x="19.276" y="91.5" fill="#000" font-family="Verdana" font-size="12">mysqld`fil_io</text></g><g class="func_g" onmouseout="c()" onmouseover="s('mysqld`buf_page_get_gen (13 ms, 1.34%)')"><title>mysqld`buf_page_get_gen (13 ms, 1.34%)</title><rect width="13" height="15" x="743" y="129" fill="#7878DB" rx="2" ry="2"/></g><g class="func_g" onmouseout="c()" onmouseover="s('libc.so.1`__pread (465 ms, 47.87%)')"><title>libc.so.1`__pread (465 ms, 47.87%)</title><rect width="469.2" height="15" x="273.8" y="49" fill="#8181D3" rx="2" ry="2"/><text x="276.832" y="59.5" fill="#000" font-family="Verdana" font-size="12">libc.so.1`__pread</text></g><g class="func_g" onmouseout="c()" onmouseover="s('rsyslogd`doWriteInternal (0 ms, 0.00%)')"><title>rsyslogd`doWriteInternal (0 ms, 0.00%)</title><rect width=".2" height="15" x="839.6" y="113" fill="#5E5EE3" rx="2" ry="2"/></g><g class="func_g" onmouseout="c()" onmouseover="s('mysqld`buf_read_page_low (13 ms, 1.34%)')"><title>mysqld`buf_read_page_low (13 ms, 1.34%)</title><rect width="13" height="15" x="743" y="97" fill="#6D6DC0" rx="2" ry="2"/></g><g class="func_g" onmouseout="c()" onmouseover="s('libresolv_joy.so.2`joy_res_ninit (0 ms, 0.00%)')"><title>libresolv_joy.so.2`joy_res_ninit (0 ms, 0.00%)</title><rect width=".2" height="15" x="838.7" y="337" fill="#8383DB" rx="2" ry="2"/></g><g class="func_g" onmouseout="c()" onmouseover="s('tail`show (1 ms, 0.10%)')"><title>tail`show (1 ms, 0.10%)</title><rect width=".8" height="15" x="840.8" y="449" fill="#6767CC" rx="2" ry="2"/></g><g class="func_g" onmouseout="c()" onmouseover="s('libc.so.1`__pwrite (0 ms, 0.00%)')"><title>libc.so.1`__pwrite (0 ms, 0.00%)</title><rect width=".4" height="15" x="15.3" y="385" fill="#7272E9" rx="2" ry="2"/></g><g class="func_g" onmouseout="c()" onmouseover="s('mysqld`handler::multi_range_read_info_const (255 ms, 26.25%)')"><title>mysqld`handler::multi_range_read_info_const (255 ms, 26.25%)</title><rect width="257.5" height="15" x="16.3" y="193" fill="#6A6AC1" rx="2" ry="2"/><text x="19.276" y="203.5" fill="#000" font-family="Verdana" font-size="12">mysqld`handler::multi_range_read_i..</text></g><g class="func_g" onmouseout="c()" onmouseover="s('rsyslogd`qqueueEnqObjDirectBatch (0 ms, 0.00%)')"><title>rsyslogd`qqueueEnqObjDirectBatch (0 ms, 0.00%)</title><rect width=".2" height="15" x="839.6" y="257" fill="#6767C5" rx="2" ry="2"/></g><g class="func_g" onmouseout="c()" onmouseover="s('rsyslogd`processAction (0 ms, 0.00%)')"><title>rsyslogd`processAction (0 ms, 0.00%)</title><rect width=".2" height="15" x="839.6" y="225" fill="#6262D4" rx="2" ry="2"/></g><g class="func_g" onmouseout="c()" onmouseover="s('rsyslogd`finishBatch (0 ms, 0.00%)')"><title>rsyslogd`finishBatch (0 ms, 0.00%)</title><rect width=".2" height="15" x="839.6" y="193" fill="#5050D9" rx="2" ry="2"/></g><g class="func_g" onmouseout="c()" onmouseover="s('libc.so.1`_filbuf (5 ms, 0.51%)')"><title>libc.so.1`_filbuf (5 ms, 0.51%)</title><rect width="5.2" height="15" x="10.1" y="401" fill="#7373E5" rx="2" ry="2"/></g><g class="func_g" onmouseout="c()" onmouseover="s('libc.so.1`__pwrite (0 ms, 0.00%)')"><title>libc.so.1`__pwrite (0 ms, 0.00%)</title><rect width=".4" height="15" x="15.8" y="401" fill="#7777F1" rx="2" ry="2"/></g><g class="func_g" onmouseout="c()" onmouseover="s('mysqld`fil_io (0 ms, 0.00%)')"><title>mysqld`fil_io (0 ms, 0.00%)</title><rect width=".4" height="15" x="15.3" y="417" fill="#7A7AEA" rx="2" ry="2"/></g><g class="func_g" onmouseout="c()" onmouseover="s('libc.so.1`__read (5 ms, 0.51%)')"><title>libc.so.1`__read (5 ms, 0.51%)</title><rect width="5.2" height="15" x="10.1" y="385" fill="#5555C1" rx="2" ry="2"/></g><g class="func_g" onmouseout="c()" onmouseover="s('nscd`nss_psearch (1 ms, 0.10%)')"><title>nscd`nss_psearch (1 ms, 0.10%)</title><rect width=".5" height="15" x="838.7" y="417" fill="#8A8AC3" rx="2" ry="2"/></g><g class="func_g" onmouseout="c()" onmouseover="s('nscd`nsc_lookup (23 ms, 2.37%)')"><title>nscd`nsc_lookup (23 ms, 2.37%)</title><rect width="23.5" height="15" x="815.7" y="449" fill="#5353C7" rx="2" ry="2"/><text x="818.677" y="459.5" fill="#000" font-family="Verdana" font-size="12">n..</text></g><g class="func_g" onmouseout="c()" onmouseover="s('tar`putfile (147 ms, 15.13%)')"><title>tar`putfile (147 ms, 15.13%)</title><rect width="148.4" height="15" x="841.6" y="449" fill="#6E6EE7" rx="2" ry="2"/><text x="844.648" y="459.5" fill="#000" font-family="Verdana" font-size="12">tar`putfile</text></g><g class="func_g" onmouseout="c()" onmouseover="s('mysqld`fil_io (26 ms, 2.68%)')"><title>mysqld`fil_io (26 ms, 2.68%)</title><rect width="26.5" height="15" x="247.3" y="97" fill="#7F7FE7" rx="2" ry="2"/><text x="250.273" y="107.5" fill="#000" font-family="Verdana" font-size="12">m..</text></g><g class="func_g" onmouseout="c()" onmouseover="s('libc.so.1`__pread (229 ms, 23.58%)')"><title>libc.so.1`__pread (229 ms, 23.58%)</title><rect width="231" height="15" x="16.3" y="33" fill="#6B6BCF" rx="2" ry="2"/><text x="19.276" y="43.5" fill="#000" font-family="Verdana" font-size="12">libc.so.1`__pread</text></g><g class="func_g" onmouseout="c()" onmouseover="s('mysqld`fil_io (0 ms, 0.00%)')"><title>mysqld`fil_io (0 ms, 0.00%)</title><rect width=".5" height="15" x="756" y="385" fill="#5757C8" rx="2" ry="2"/></g><g class="func_g" onmouseout="c()" onmouseover="s('mysqld`ha_innobase::index_read (478 ms, 49.21%)')"><title>mysqld`ha_innobase::index_read (478 ms, 49.21%)</title><rect width="482.2" height="15" x="273.8" y="193" fill="#6868E0" rx="2" ry="2"/><text x="276.832" y="203.5" fill="#000" font-family="Verdana" font-size="12">mysqld`ha_innobase::index_read</text></g><g class="func_g" onmouseout="c()" onmouseover="s('rsyslogd`msgConsumer (0 ms, 0.00%)')"><title>rsyslogd`msgConsumer (0 ms, 0.00%)</title><rect width=".2" height="15" x="839.6" y="417" fill="#8B8BDA" rx="2" ry="2"/></g><g class="func_g" onmouseout="c()" onmouseover="s('mysqld`os_file_read_func (13 ms, 1.34%)')"><title>mysqld`os_file_read_func (13 ms, 1.34%)</title><rect width="13" height="15" x="743" y="65" fill="#8B8BC8" rx="2" ry="2"/></g><g class="func_g" onmouseout="c()" onmouseover="s('mysqld`buf_do_flush_list_batch (0 ms, 0.00%)')"><title>mysqld`buf_do_flush_list_batch (0 ms, 0.00%)</title><rect width=".1" height="15" x="15.7" y="433" fill="#5555D8" rx="2" ry="2"/></g><g class="func_g" onmouseout="c()" onmouseover="s('mysqld`get_key_scans_params (255 ms, 26.25%)')"><title>mysqld`get_key_scans_params (255 ms, 26.25%)</title><rect width="257.5" height="15" x="16.3" y="241" fill="#8181E6" rx="2" ry="2"/><text x="19.276" y="251.5" fill="#000" font-family="Verdana" font-size="12">mysqld`get_key_scans_params</text></g><g class="func_g" onmouseout="c()" onmouseover="s('0x8265952 (0 ms, 0.00%)')"><title>0x8265952 (0 ms, 0.00%)</title><rect width=".4" height="15" x="839.2" y="465" fill="#6D6DF2" rx="2" ry="2"/></g><g class="func_g" onmouseout="c()" onmouseover="s('mysqld`buf_dblwr_flush_buffered_writes (0 ms, 0.00%)')"><title>mysqld`buf_dblwr_flush_buffered_writes (0 ms, 0.00%)</title><rect width=".4" height="15" x="15.3" y="433" fill="#7575C8" rx="2" ry="2"/></g><g class="func_g" onmouseout="c()" onmouseover="s('rsyslogd`doSubmitToActionQBatch (0 ms, 0.00%)')"><title>rsyslogd`doSubmitToActionQBatch (0 ms, 0.00%)</title><rect width=".2" height="15" x="839.6" y="289" fill="#7676EC" rx="2" ry="2"/></g><g class="func_g" onmouseout="c()" onmouseover="s('mysqld`srv_master_thread (0 ms, 0.00%)')"><title>mysqld`srv_master_thread (0 ms, 0.00%)</title><rect width=".5" height="15" x="756" y="465" fill="#6363E0" rx="2" ry="2"/></g><g class="func_g" onmouseout="c()" onmouseover="s('mysqld`btr_estimate_n_rows_in_range (255 ms, 26.25%)')"><title>mysqld`btr_estimate_n_rows_in_range (255 ms, 26.25%)</title><rect width="257.5" height="15" x="16.3" y="161" fill="#8585D5" rx="2" ry="2"/><text x="19.276" y="171.5" fill="#000" font-family="Verdana" font-size="12">mysqld`btr_estimate_n_rows_in_range</text></g><g class="func_g" onmouseout="c()" onmouseover="s('nscd`check_db_file (23 ms, 2.37%)')"><title>nscd`check_db_file (23 ms, 2.37%)</title><rect width="23" height="15" x="815.7" y="417" fill="#5656E0" rx="2" ry="2"/><text x="818.677" y="427.5" fill="#000" font-family="Verdana" font-size="12">n..</text></g><g class="func_g" onmouseout="c()" onmouseover="s('mysqld`mysql_execute_command (733 ms, 75.47%)')"><title>mysqld`mysql_execute_command (733 ms, 75.47%)</title><rect width="739.8" height="15" x="16.2" y="353" fill="#5858F3" rx="2" ry="2"/><text x="19.221" y="363.5" fill="#000" font-family="Verdana" font-size="12">mysqld`mysql_execute_command</text></g><g class="func_g" onmouseout="c()" onmouseover="s('rsyslogd`doWriteCall (0 ms, 0.00%)')"><title>rsyslogd`doWriteCall (0 ms, 0.00%)</title><rect width=".2" height="15" x="839.6" y="81" fill="#6767EE" rx="2" ry="2"/></g><g class="func_g" onmouseout="c()" onmouseover="s('mysqld`fil_io (0 ms, 0.00%)')"><title>mysqld`fil_io (0 ms, 0.00%)</title><rect width=".1" height="15" x="15.7" y="353" fill="#7474CA" rx="2" ry="2"/></g><g class="func_g" onmouseout="c()" onmouseover="s('mysqld`os_file_write_func (0 ms, 0.00%)')"><title>mysqld`os_file_write_func (0 ms, 0.00%)</title><rect width=".4" height="15" x="15.3" y="401" fill="#6666CF" rx="2" ry="2"/></g><g class="func_g" onmouseout="c()" onmouseover="s('libc.so.1`syscall (1 ms, 0.10%)')"><title>libc.so.1`syscall (1 ms, 0.10%)</title><rect width="1" height="15" x="839.8" y="449" fill="#5151CD" rx="2" ry="2"/></g><g class="func_g" onmouseout="c()" onmouseover="s('mysqld`io_handler_thread (0 ms, 0.00%)')"><title>mysqld`io_handler_thread (0 ms, 0.00%)</title><rect width=".4" height="15" x="15.8" y="465" fill="#6D6DD6" rx="2" ry="2"/></g><g class="func_g" onmouseout="c()" onmouseover="s('mysqld`dispatch_command (733 ms, 75.47%)')"><title>mysqld`dispatch_command (733 ms, 75.47%)</title><rect width="739.8" height="15" x="16.2" y="417" fill="#6A6AD7" rx="2" ry="2"/><text x="19.221" y="427.5" fill="#000" font-family="Verdana" font-size="12">mysqld`dispatch_command</text></g><g class="func_g" onmouseout="c()" onmouseover="s('mysqld`buf_read_page_low (465 ms, 47.87%)')"><title>mysqld`buf_read_page_low (465 ms, 47.87%)</title><rect width="469.2" height="15" x="273.8" y="113" fill="#7676D4" rx="2" ry="2"/><text x="276.832" y="123.5" fill="#000" font-family="Verdana" font-size="12">mysqld`buf_read_page_low</text></g><g class="func_g" onmouseout="c()" onmouseover="s('mysqld`JOIN::optimize (733 ms, 75.47%)')"><title>mysqld`JOIN::optimize (733 ms, 75.47%)</title><rect width="739.7" height="15" x="16.3" y="289" fill="#6060E2" rx="2" ry="2"/><text x="19.276" y="299.5" fill="#000" font-family="Verdana" font-size="12">mysqld`JOIN::optimize</text></g><g class="func_g" onmouseout="c()" onmouseover="s('nscd (82 ms, 8.44%)')"><title>nscd (82 ms, 8.44%)</title><rect width="82.7" height="15" x="756.5" y="513" fill="#6969E5" rx="2" ry="2"/><text x="759.478" y="523.5" fill="#000" font-family="Verdana" font-size="12">nscd</text></g><g class="func_g" onmouseout="c()" onmouseover="s('0x836cedf (0 ms, 0.00%)')"><title>0x836cedf (0 ms, 0.00%)</title><rect width=".1" height="15" x="839.4" y="417" fill="#8383C6" rx="2" ry="2"/></g><g class="func_g" onmouseout="c()" onmouseover="s('nscd`lookup (23 ms, 2.37%)')"><title>nscd`lookup (23 ms, 2.37%)</title><rect width="23.5" height="15" x="815.7" y="465" fill="#7373DD" rx="2" ry="2"/><text x="818.677" y="475.5" fill="#000" font-family="Verdana" font-size="12">n..</text></g><g class="func_g" onmouseout="c()" onmouseover="s('rsyslogd (0 ms, 0.00%)')"><title>rsyslogd (0 ms, 0.00%)</title><rect width=".2" height="15" x="839.6" y="513" fill="#8B8BEF" rx="2" ry="2"/></g><g class="func_g" onmouseout="c()" onmouseover="s('nss_files.so.1`getbyname (0 ms, 0.00%)')"><title>nss_files.so.1`getbyname (0 ms, 0.00%)</title><rect width=".2" height="15" x="839" y="385" fill="#8787CE" rx="2" ry="2"/></g><g class="func_g" onmouseout="c()" onmouseover="s('mysqld`mysql_select (733 ms, 75.47%)')"><title>mysqld`mysql_select (733 ms, 75.47%)</title><rect width="739.8" height="15" x="16.2" y="305" fill="#6969F3" rx="2" ry="2"/><text x="19.221" y="315.5" fill="#000" font-family="Verdana" font-size="12">mysqld`mysql_select</text></g><g class="func_g" onmouseout="c()" onmouseover="s('rsyslogd`submitBatch (0 ms, 0.00%)')"><title>rsyslogd`submitBatch (0 ms, 0.00%)</title><rect width=".2" height="15" x="839.6" y="209" fill="#7A7AC0" rx="2" ry="2"/></g><g class="func_g" onmouseout="c()" onmouseover="s('mysqld`Prepared_statement::execute_loop (733 ms, 75.47%)')"><title>mysqld`Prepared_statement::execute_loop (733 ms, 75.47%)</title><rect width="739.8" height="15" x="16.2" y="385" fill="#7070E9" rx="2" ry="2"/><text x="19.221" y="395.5" fill="#000" font-family="Verdana" font-size="12">mysqld`Prepared_statement::execute_loop</text></g><g class="func_g" onmouseout="c()" onmouseover="s('mysqld`row_search_for_mysql (478 ms, 49.21%)')"><title>mysqld`row_search_for_mysql (478 ms, 49.21%)</title><rect width="482.2" height="15" x="273.8" y="177" fill="#6161EA" rx="2" ry="2"/><text x="276.832" y="187.5" fill="#000" font-family="Verdana" font-size="12">mysqld`row_search_for_mysql</text></g><g class="func_g" onmouseout="c()" onmouseover="s('mysqld`buf_read_page (465 ms, 47.87%)')"><title>mysqld`buf_read_page (465 ms, 47.87%)</title><rect width="469.2" height="15" x="273.8" y="129" fill="#6C6CE7" rx="2" ry="2"/><text x="276.832" y="139.5" fill="#000" font-family="Verdana" font-size="12">mysqld`buf_read_page</text></g><g class="func_g" onmouseout="c()" onmouseover="s('rsyslogd`strmFlush (0 ms, 0.00%)')"><title>rsyslogd`strmFlush (0 ms, 0.00%)</title><rect width=".2" height="15" x="839.6" y="161" fill="#5656C6" rx="2" ry="2"/></g><g class="func_g" onmouseout="c()" onmouseover="s('rsyslogd`strmSchedWrite (0 ms, 0.00%)')"><title>rsyslogd`strmSchedWrite (0 ms, 0.00%)</title><rect width=".2" height="15" x="839.6" y="129" fill="#5757D3" rx="2" ry="2"/></g><g class="func_g" onmouseout="c()" onmouseover="s('init`getcmd (5 ms, 0.51%)')"><title>init`getcmd (5 ms, 0.51%)</title><rect width="5.2" height="15" x="10.1" y="449" fill="#8484C1" rx="2" ry="2"/></g><g class="func_g" onmouseout="c()" onmouseover="s('libc.so.1`__pwrite (0 ms, 0.00%)')"><title>libc.so.1`__pwrite (0 ms, 0.00%)</title><rect width=".5" height="15" x="756" y="353" fill="#5B5BE0" rx="2" ry="2"/></g><g class="func_g" onmouseout="c()" onmouseover="s('mysqld`handler::ha_index_read_idx_map (478 ms, 49.21%)')"><title>mysqld`handler::ha_index_read_idx_map (478 ms, 49.21%)</title><rect width="482.2" height="15" x="273.8" y="225" fill="#8A8AEC" rx="2" ry="2"/><text x="276.832" y="235.5" fill="#000" font-family="Verdana" font-size="12">mysqld`handler::ha_index_read_idx_map</text></g><g class="func_g" onmouseout="c()" onmouseover="s('nss_files.so.1`__nss_files_XY_hostbyname (0 ms, 0.00%)')"><title>nss_files.so.1`__nss_files_XY_hostbyname (0 ms, 0.00%)</title><rect width=".2" height="15" x="839" y="369" fill="#7D7DDE" rx="2" ry="2"/></g><g class="func_g" onmouseout="c()" onmouseover="s('mysqld`os_file_pread (13 ms, 1.34%)')"><title>mysqld`os_file_pread (13 ms, 1.34%)</title><rect width="13" height="15" x="743" y="49" fill="#8383C7" rx="2" ry="2"/></g><g class="func_g" onmouseout="c()" onmouseover="s('rsyslogd`processBatchDoActions (0 ms, 0.00%)')"><title>rsyslogd`processBatchDoActions (0 ms, 0.00%)</title><rect width=".2" height="15" x="839.6" y="321" fill="#5050C5" rx="2" ry="2"/></g><g class="func_g" onmouseout="c()" onmouseover="s('rsyslogd`doSubmitToActionQNotAllMarkBatch (0 ms, 0.00%)')"><title>rsyslogd`doSubmitToActionQNotAllMarkBatch (0 ms, 0.00%)</title><rect width=".2" height="15" x="839.6" y="305" fill="#8181EE" rx="2" ry="2"/></g><g class="func_g" onmouseout="c()" onmouseover="s('mysqld`btr_cur_search_to_nth_level (229 ms, 23.58%)')"><title>mysqld`btr_cur_search_to_nth_level (229 ms, 23.58%)</title><rect width="231" height="15" x="16.3" y="145" fill="#66C" rx="2" ry="2"/><text x="19.276" y="155.5" fill="#000" font-family="Verdana" font-size="12">mysqld`btr_cur_search_to_nth_l..</text></g><g class="func_g" onmouseout="c()" onmouseover="s('rsyslogd`strmFlushInternal (0 ms, 0.00%)')"><title>rsyslogd`strmFlushInternal (0 ms, 0.00%)</title><rect width=".2" height="15" x="839.6" y="145" fill="#5B5BEB" rx="2" ry="2"/></g><g class="func_g" onmouseout="c()" onmouseover="s('0x8355ff5 (0 ms, 0.00%)')"><title>0x8355ff5 (0 ms, 0.00%)</title><rect width=".1" height="15" x="839.4" y="401" fill="#6666CE" rx="2" ry="2"/></g><g class="func_g" onmouseout="c()" onmouseover="s('rsyslogd`llExecFunc (0 ms, 0.00%)')"><title>rsyslogd`llExecFunc (0 ms, 0.00%)</title><rect width=".2" height="15" x="839.6" y="385" fill="#8585BE" rx="2" ry="2"/></g><g class="func_g" onmouseout="c()" onmouseover="s('init`_start (5 ms, 0.51%)')"><title>init`_start (5 ms, 0.51%)</title><rect width="5.2" height="15" x="10.1" y="497" fill="#6363C3" rx="2" ry="2"/></g><g class="func_g" onmouseout="c()" onmouseover="s('mysqld`log_write_up_to (0 ms, 0.00%)')"><title>mysqld`log_write_up_to (0 ms, 0.00%)</title><rect width=".1" height="15" x="15.7" y="385" fill="#8A8AE7" rx="2" ry="2"/></g><g class="func_g" onmouseout="c()" onmouseover="s('mysqld`fil_aio_wait (0 ms, 0.00%)')"><title>mysqld`fil_aio_wait (0 ms, 0.00%)</title><rect width=".4" height="15" x="15.8" y="449" fill="#6161CC" rx="2" ry="2"/></g><g class="func_g" onmouseout="c()" onmouseover="s('mysqld`buf_flush_list (1 ms, 0.10%)')"><title>mysqld`buf_flush_list (1 ms, 0.10%)</title><rect width=".5" height="15" x="15.3" y="449" fill="#5353D8" rx="2" ry="2"/></g><g class="func_g" onmouseout="c()" onmouseover="s('mysqld`os_file_read_func (465 ms, 47.87%)')"><title>mysqld`os_file_read_func (465 ms, 47.87%)</title><rect width="469.2" height="15" x="273.8" y="81" fill="#5151DE" rx="2" ry="2"/><text x="276.832" y="91.5" fill="#000" font-family="Verdana" font-size="12">mysqld`os_file_read_func</text></g><g class="func_g" onmouseout="c()" onmouseover="s('libc.so.1`__write (0 ms, 0.00%)')"><title>libc.so.1`__write (0 ms, 0.00%)</title><rect width=".2" height="15" x="839.6" y="65" fill="#7C7CD0" rx="2" ry="2"/></g><g class="func_g" onmouseout="c()" onmouseover="s('rsyslogd`wtiWorker (0 ms, 0.00%)')"><title>rsyslogd`wtiWorker (0 ms, 0.00%)</title><rect width=".2" height="15" x="839.6" y="449" fill="#5B5BF2" rx="2" ry="2"/></g><g class="func_g" onmouseout="c()" onmouseover="s('rsyslogd`processBatch (0 ms, 0.00%)')"><title>rsyslogd`processBatch (0 ms, 0.00%)</title><rect width=".2" height="15" x="839.6" y="401" fill="#7676F3" rx="2" ry="2"/></g><g class="func_g" onmouseout="c()" onmouseover="s('libc.so.1`_lwp_start (735 ms, 75.67%)')"><title>libc.so.1`_lwp_start (735 ms, 75.67%)</title><rect width="741.2" height="15" x="15.3" y="497" fill="#7E7EDA" rx="2" ry="2"/><text x="18.316" y="507.5" fill="#000" font-family="Verdana" font-size="12">libc.so.1`_lwp_start</text></g><g class="func_g" onmouseout="c()" onmouseover="s('rsyslogd`processBatchMain (0 ms, 0.00%)')"><title>rsyslogd`processBatchMain (0 ms, 0.00%)</title><rect width=".2" height="15" x="839.6" y="241" fill="#8989F1" rx="2" ry="2"/></g><g class="func_g" onmouseout="c()" onmouseover="s('rsyslogd`ConsumerReg (0 ms, 0.00%)')"><title>rsyslogd`ConsumerReg (0 ms, 0.00%)</title><rect width=".2" height="15" x="839.6" y="433" fill="#5858C8" rx="2" ry="2"/></g><g class="func_g" onmouseout="c()" onmouseover="s('mysqld`buf_read_page (229 ms, 23.58%)')"><title>mysqld`buf_read_page (229 ms, 23.58%)</title><rect width="231" height="15" x="16.3" y="113" fill="#6868C7" rx="2" ry="2"/><text x="19.276" y="123.5" fill="#000" font-family="Verdana" font-size="12">mysqld`buf_read_page</text></g><g class="func_g" onmouseout="c()" onmouseover="s('nscd`lookup_int (23 ms, 2.37%)')"><title>nscd`lookup_int (23 ms, 2.37%)</title><rect width="23.5" height="15" x="815.7" y="433" fill="#5B5BF0" rx="2" ry="2"/><text x="818.677" y="443.5" fill="#000" font-family="Verdana" font-size="12">n..</text></g><g class="func_g" onmouseout="c()" onmouseover="s('tail (2 ms, 0.21%)')"><title>tail (2 ms, 0.21%)</title><rect width="1.8" height="15" x="839.8" y="513" fill="#6B6BD7" rx="2" ry="2"/></g><g class="func_g" onmouseout="c()" onmouseover="s('mysqld`Prepared_statement::execute (733 ms, 75.47%)')"><title>mysqld`Prepared_statement::execute (733 ms, 75.47%)</title><rect width="739.8" height="15" x="16.2" y="369" fill="#7575D1" rx="2" ry="2"/><text x="19.221" y="379.5" fill="#000" font-family="Verdana" font-size="12">mysqld`Prepared_statement::execute</text></g><g class="func_g" onmouseout="c()" onmouseover="s('mysqld`execute_sqlcom_select (733 ms, 75.47%)')"><title>mysqld`execute_sqlcom_select (733 ms, 75.47%)</title><rect width="739.8" height="15" x="16.2" y="337" fill="#5D5DF4" rx="2" ry="2"/><text x="19.221" y="347.5" fill="#000" font-family="Verdana" font-size="12">mysqld`execute_sqlcom_select</text></g><g class="func_g" onmouseout="c()" onmouseover="s('mysqld`srv_sync_log_buffer_in_background (0 ms, 0.00%)')"><title>mysqld`srv_sync_log_buffer_in_background (0 ms, 0.00%)</title><rect width=".5" height="15" x="756" y="449" fill="#8686F4" rx="2" ry="2"/></g><g class="func_g" onmouseout="c()" onmouseover="s('rsyslogd`strmPhysWrite (0 ms, 0.00%)')"><title>rsyslogd`strmPhysWrite (0 ms, 0.00%)</title><rect width=".2" height="15" x="839.6" y="97" fill="#8888C3" rx="2" ry="2"/></g><g class="func_g" onmouseout="c()" onmouseover="s('libc.so.1`__pread (13 ms, 1.34%)')"><title>libc.so.1`__pread (13 ms, 1.34%)</title><rect width="13" height="15" x="743" y="33" fill="#5D5DD1" rx="2" ry="2"/></g><g class="func_g" onmouseout="c()" onmouseover="s('rsyslogd`endTransaction (0 ms, 0.00%)')"><title>rsyslogd`endTransaction (0 ms, 0.00%)</title><rect width=".2" height="15" x="839.6" y="177" fill="#6363E4" rx="2" ry="2"/></g><g class="func_g" onmouseout="c()" onmouseover="s('0x82a0e64 (0 ms, 0.00%)')"><title>0x82a0e64 (0 ms, 0.00%)</title><rect width=".4" height="15" x="839.2" y="433" fill="#8282C4" rx="2" ry="2"/></g><g class="func_g" onmouseout="c()" onmouseover="s('mysqld`os_file_pread (465 ms, 47.87%)')"><title>mysqld`os_file_pread (465 ms, 47.87%)</title><rect width="469.2" height="15" x="273.8" y="65" fill="#6666E1" rx="2" ry="2"/><text x="276.832" y="75.5" fill="#000" font-family="Verdana" font-size="12">mysqld`os_file_pread</text></g><g class="func_g" onmouseout="c()" onmouseover="s('mysqld`btr_pcur_move_to_next_page (13 ms, 1.34%)')"><title>mysqld`btr_pcur_move_to_next_page (13 ms, 1.34%)</title><rect width="13" height="15" x="743" y="145" fill="#6A6ADE" rx="2" ry="2"/></g><g class="func_g" onmouseout="c()" onmouseover="s('mysqld`buf_read_page (13 ms, 1.34%)')"><title>mysqld`buf_read_page (13 ms, 1.34%)</title><rect width="13" height="15" x="743" y="113" fill="#6E6EE7" rx="2" ry="2"/></g><g class="func_g" onmouseout="c()" onmouseover="s('libc.so.1`fgetc (5 ms, 0.51%)')"><title>libc.so.1`fgetc (5 ms, 0.51%)</title><rect width="5.2" height="15" x="10.1" y="433" fill="#8989DA" rx="2" ry="2"/></g><g class="func_g" onmouseout="c()" onmouseover="s('libc.so.1`_filbuf (1 ms, 0.10%)')"><title>libc.so.1`_filbuf (1 ms, 0.10%)</title><rect width=".8" height="15" x="840.8" y="433" fill="#8585C0" rx="2" ry="2"/></g><g class="func_g" onmouseout="c()" onmouseover="s('mysqld`fil_io (13 ms, 1.34%)')"><title>mysqld`fil_io (13 ms, 1.34%)</title><rect width="13" height="15" x="743" y="81" fill="#6B6BC9" rx="2" ry="2"/></g><g class="func_g" onmouseout="c()" onmouseover="s('mysqld`ha_innobase::records_in_range (255 ms, 26.25%)')"><title>mysqld`ha_innobase::records_in_range (255 ms, 26.25%)</title><rect width="257.5" height="15" x="16.3" y="177" fill="#8585E4" rx="2" ry="2"/><text x="19.276" y="187.5" fill="#000" font-family="Verdana" font-size="12">mysqld`ha_innobase::records_in_range</text></g><g class="func_g" onmouseout="c()" onmouseover="s('mysqld`os_aio_simulated_handle (0 ms, 0.00%)')"><title>mysqld`os_aio_simulated_handle (0 ms, 0.00%)</title><rect width=".4" height="15" x="15.8" y="433" fill="#7B7BE3" rx="2" ry="2"/></g><g class="func_g" onmouseout="c()" onmouseover="s('mysqld`btr_cur_search_to_nth_level (465 ms, 47.87%)')"><title>mysqld`btr_cur_search_to_nth_level (465 ms, 47.87%)</title><rect width="469.2" height="15" x="273.8" y="161" fill="#8585D5" rx="2" ry="2"/><text x="276.832" y="171.5" fill="#000" font-family="Verdana" font-size="12">mysqld`btr_cur_search_to_nth_level</text></g><g class="func_g" onmouseout="c()" onmouseover="s('postgres (0 ms, 0.00%)')"><title>postgres (0 ms, 0.00%)</title><rect width=".4" height="15" x="839.2" y="513" fill="#7070DA" rx="2" ry="2"/></g><g class="func_g" onmouseout="c()" onmouseover="s('mysqld`buf_page_get_gen (465 ms, 47.87%)')"><title>mysqld`buf_page_get_gen (465 ms, 47.87%)</title><rect width="469.2" height="15" x="273.8" y="145" fill="#5858D2" rx="2" ry="2"/><text x="276.832" y="155.5" fill="#000" font-family="Verdana" font-size="12">mysqld`buf_page_get_gen</text></g><g class="func_g" onmouseout="c()" onmouseover="s('libc.so.1`__door_return (82 ms, 8.44%)')"><title>libc.so.1`__door_return (82 ms, 8.44%)</title><rect width="82.7" height="15" x="756.5" y="497" fill="#7272CF" rx="2" ry="2"/><text x="759.478" y="507.5" fill="#000" font-family="Verdana" font-size="12">libc.so.1..</text></g><g class="func_g" onmouseout="c()" onmouseover="s('tail`main (2 ms, 0.21%)')"><title>tail`main (2 ms, 0.21%)</title><rect width="1.8" height="15" x="839.8" y="481" fill="#8989D1" rx="2" ry="2"/></g><g class="func_g" onmouseout="c()" onmouseover="s('tar`_start (147 ms, 15.13%)')"><title>tar`_start (147 ms, 15.13%)</title><rect width="148.4" height="15" x="841.6" y="497" fill="#5A5AD0" rx="2" ry="2"/><text x="844.648" y="507.5" fill="#000" font-family="Verdana" font-size="12">tar`_start</text></g><g class="func_g" onmouseout="c()" onmouseover="s('mysqld`os_file_write_func (0 ms, 0.00%)')"><title>mysqld`os_file_write_func (0 ms, 0.00%)</title><rect width=".1" height="15" x="15.7" y="337" fill="#5858F4" rx="2" ry="2"/></g><g class="func_g" onmouseout="c()" onmouseover="s('libc.so.1`__read (0 ms, 0.00%)')"><title>libc.so.1`__read (0 ms, 0.00%)</title><rect width=".2" height="15" x="839" y="321" fill="#7171EF" rx="2" ry="2"/></g><g class="func_g" onmouseout="c()" onmouseover="s('mysqld`mysqld_stmt_execute (733 ms, 75.47%)')"><title>mysqld`mysqld_stmt_execute (733 ms, 75.47%)</title><rect width="739.8" height="15" x="16.2" y="401" fill="#6161C7" rx="2" ry="2"/><text x="19.221" y="411.5" fill="#000" font-family="Verdana" font-size="12">mysqld`mysqld_stmt_execute</text></g><g class="func_g" onmouseout="c()" onmouseover="s('libc.so.1`fgets (0 ms, 0.00%)')"><title>libc.so.1`fgets (0 ms, 0.00%)</title><rect width=".2" height="15" x="838.7" y="305" fill="#7676E3" rx="2" ry="2"/></g><g class="func_g" onmouseout="c()" onmouseover="s('libc.so.1`_filbuf (0 ms, 0.00%)')"><title>libc.so.1`_filbuf (0 ms, 0.00%)</title><rect width=".2" height="15" x="839" y="337" fill="#5353F2" rx="2" ry="2"/></g><g class="func_g" onmouseout="c()" onmouseover="s('nss_files.so.1`_nss_files_read_line (0 ms, 0.00%)')"><title>nss_files.so.1`_nss_files_read_line (0 ms, 0.00%)</title><rect width=".2" height="15" x="839" y="353" fill="#6A6AC5" rx="2" ry="2"/></g><g class="func_g" onmouseout="c()" onmouseover="s('libc.so.1`_lwp_start (0 ms, 0.00%)')"><title>libc.so.1`_lwp_start (0 ms, 0.00%)</title><rect width=".2" height="15" x="839.6" y="497" fill="#6666C8" rx="2" ry="2"/></g><g class="func_g" onmouseout="c()" onmouseover="s('libc.so.1`getc (5 ms, 0.51%)')"><title>libc.so.1`getc (5 ms, 0.51%)</title><rect width="5.2" height="15" x="10.1" y="417" fill="#5252BF" rx="2" ry="2"/></g><g class="func_g" onmouseout="c()" onmouseover="s('mysqld`os_file_read_func (229 ms, 23.58%)')"><title>mysqld`os_file_read_func (229 ms, 23.58%)</title><rect width="231" height="15" x="16.3" y="65" fill="#5555DF" rx="2" ry="2"/><text x="19.276" y="75.5" fill="#000" font-family="Verdana" font-size="12">mysqld`os_file_read_func</text></g><g class="func_g" onmouseout="c()" onmouseover="s('mysqld`fil_io (465 ms, 47.87%)')"><title>mysqld`fil_io (465 ms, 47.87%)</title><rect width="469.2" height="15" x="273.8" y="97" fill="#5656DC" rx="2" ry="2"/><text x="276.832" y="107.5" fill="#000" font-family="Verdana" font-size="12">mysqld`fil_io</text></g><g class="func_g" onmouseout="c()" onmouseover="s('rsyslogd`processBatchDoRules (0 ms, 0.00%)')"><title>rsyslogd`processBatchDoRules (0 ms, 0.00%)</title><rect width=".2" height="15" x="839.6" y="369" fill="#8A8AEE" rx="2" ry="2"/></g><g class="func_g" onmouseout="c()" onmouseover="s('mysqld`handler::index_read_idx_map (478 ms, 49.21%)')"><title>mysqld`handler::index_read_idx_map (478 ms, 49.21%)</title><rect width="482.2" height="15" x="273.8" y="209" fill="#6D6DE3" rx="2" ry="2"/><text x="276.832" y="219.5" fill="#000" font-family="Verdana" font-size="12">mysqld`handler::index_read_idx_map</text></g><g class="func_g" onmouseout="c()" onmouseover="s('0x80b5713 (0 ms, 0.00%)')"><title>0x80b5713 (0 ms, 0.00%)</title><rect width=".4" height="15" x="839.2" y="497" fill="#7F7FD5" rx="2" ry="2"/></g><g class="func_g" onmouseout="c()" onmouseover="s('mysqld`buf_flush_page_cleaner_thread (1 ms, 0.10%)')"><title>mysqld`buf_flush_page_cleaner_thread (1 ms, 0.10%)</title><rect width=".5" height="15" x="15.3" y="465" fill="#7575C9" rx="2" ry="2"/></g><g class="func_g" onmouseout="c()" onmouseover="s('libc.so.1`__pread (26 ms, 2.68%)')"><title>libc.so.1`__pread (26 ms, 2.68%)</title><rect width="26.5" height="15" x="247.3" y="49" fill="#6161EE" rx="2" ry="2"/><text x="250.273" y="59.5" fill="#000" font-family="Verdana" font-size="12">l..</text></g><g class="func_g" onmouseout="c()" onmouseover="s('mysqld`btr_pcur_move_to_next (13 ms, 1.34%)')"><title>mysqld`btr_pcur_move_to_next (13 ms, 1.34%)</title><rect width="13" height="15" x="743" y="161" fill="#6D6DEB" rx="2" ry="2"/></g><g class="func_g" onmouseout="c()" onmouseover="s('mysqld`log_group_write_buf (0 ms, 0.00%)')"><title>mysqld`log_group_write_buf (0 ms, 0.00%)</title><rect width=".5" height="15" x="756" y="401" fill="#5A5AC8" rx="2" ry="2"/></g><g class="func_g" onmouseout="c()" onmouseover="s('libc.so.1`syscall (23 ms, 2.37%)')"><title>libc.so.1`syscall (23 ms, 2.37%)</title><rect width="23" height="15" x="815.7" y="401" fill="#5E5EEF" rx="2" ry="2"/><text x="818.677" y="411.5" fill="#000" font-family="Verdana" font-size="12">l..</text></g><g class="func_g" onmouseout="c()" onmouseover="s('mysqld`log_write_up_to (0 ms, 0.00%)')"><title>mysqld`log_write_up_to (0 ms, 0.00%)</title><rect width=".5" height="15" x="756" y="417" fill="#5959EB" rx="2" ry="2"/></g><g class="func_g" onmouseout="c()" onmouseover="s('libc.so.1`__pwrite (0 ms, 0.00%)')"><title>libc.so.1`__pwrite (0 ms, 0.00%)</title><rect width=".1" height="15" x="15.7" y="321" fill="#6A6ACA" rx="2" ry="2"/></g><g class="func_g" onmouseout="c()" onmouseover="s('mysqld`log_group_write_buf (0 ms, 0.00%)')"><title>mysqld`log_group_write_buf (0 ms, 0.00%)</title><rect width=".1" height="15" x="15.7" y="369" fill="#5757F4" rx="2" ry="2"/></g><g class="func_g" onmouseout="c()" onmouseover="s('tail`follow (2 ms, 0.21%)')"><title>tail`follow (2 ms, 0.21%)</title><rect width="1.8" height="15" x="839.8" y="465" fill="#6969D9" rx="2" ry="2"/></g><g class="func_g" onmouseout="c()" onmouseover="s('mysqld`buf_flush_page_and_try_neighbors (0 ms, 0.00%)')"><title>mysqld`buf_flush_page_and_try_neighbors (0 ms, 0.00%)</title><rect width=".1" height="15" x="15.7" y="417" fill="#8888F2" rx="2" ry="2"/></g><g class="func_g" onmouseout="c()" onmouseover="s('nss_dns.so.1`_nss_dns_gethost_withttl (0 ms, 0.00%)')"><title>nss_dns.so.1`_nss_dns_gethost_withttl (0 ms, 0.00%)</title><rect width=".3" height="15" x="838.7" y="353" fill="#5656C3" rx="2" ry="2"/></g><g class="func_g" onmouseout="c()" onmouseover="s('rsyslogd`doQueueEnqObjDirectBatch (0 ms, 0.00%)')"><title>rsyslogd`doQueueEnqObjDirectBatch (0 ms, 0.00%)</title><rect width=".2" height="15" x="839.6" y="273" fill="#6F6FCF" rx="2" ry="2"/></g><g class="func_g" onmouseout="c()" onmouseover="s('mysqld`os_file_write_func (0 ms, 0.00%)')"><title>mysqld`os_file_write_func (0 ms, 0.00%)</title><rect width=".5" height="15" x="756" y="369" fill="#6B6BD5" rx="2" ry="2"/></g><g class="func_g" onmouseout="c()" onmouseover="s('tar`putfile (147 ms, 15.13%)')"><title>tar`putfile (147 ms, 15.13%)</title><rect width="148.2" height="15" x="841.8" y="433" fill="#5353EB" rx="2" ry="2"/><text x="844.761" y="443.5" fill="#000" font-family="Verdana" font-size="12">tar`putfile</text></g><g class="func_g" onmouseout="c()" onmouseover="s('nscd`switcher (82 ms, 8.44%)')"><title>nscd`switcher (82 ms, 8.44%)</title><rect width="82.7" height="15" x="756.5" y="481" fill="#6161CA" rx="2" ry="2"/><text x="759.478" y="491.5" fill="#000" font-family="Verdana" font-size="12">nscd`swit..</text></g><g class="func_g" onmouseout="c()" onmouseover="s('mysqld`pfs_spawn_thread (733 ms, 75.47%)')"><title>mysqld`pfs_spawn_thread (733 ms, 75.47%)</title><rect width="739.8" height="15" x="16.2" y="465" fill="#6161F1" rx="2" ry="2"/><text x="19.221" y="475.5" fill="#000" font-family="Verdana" font-size="12">mysqld`pfs_spawn_thread</text></g><g class="func_g" onmouseout="c()" onmouseover="s('nscd`nss_search (1 ms, 0.10%)')"><title>nscd`nss_search (1 ms, 0.10%)</title><rect width=".5" height="15" x="838.7" y="401" fill="#7676CB" rx="2" ry="2"/></g><g class="func_g" onmouseout="c()" onmouseover="s('init`remv (5 ms, 0.51%)')"><title>init`remv (5 ms, 0.51%)</title><rect width="5.2" height="15" x="10.1" y="465" fill="#7979C3" rx="2" ry="2"/></g><g class="func_g" onmouseout="c()" onmouseover="s('init (5 ms, 0.51%)')"><title>init (5 ms, 0.51%)</title><rect width="5.2" height="15" x="10.1" y="513" fill="#6E6EDF" rx="2" ry="2"/></g><g class="func_g" onmouseout="c()" onmouseover="s('mysqld`buf_read_page_low (26 ms, 2.68%)')"><title>mysqld`buf_read_page_low (26 ms, 2.68%)</title><rect width="26.5" height="15" x="247.3" y="113" fill="#6666EB" rx="2" ry="2"/><text x="250.273" y="123.5" fill="#000" font-family="Verdana" font-size="12">m..</text></g><g class="func_g" onmouseout="c()" onmouseover="s('mysqld`os_file_read_func (26 ms, 2.68%)')"><title>mysqld`os_file_read_func (26 ms, 2.68%)</title><rect width="26.5" height="15" x="247.3" y="81" fill="#5353D2" rx="2" ry="2"/><text x="250.273" y="91.5" fill="#000" font-family="Verdana" font-size="12">m..</text></g><g class="func_g" onmouseout="c()" onmouseover="s('0x8264ec6 (0 ms, 0.00%)')"><title>0x8264ec6 (0 ms, 0.00%)</title><rect width=".4" height="15" x="839.2" y="449" fill="#8B8BD3" rx="2" ry="2"/></g><g class="func_g" onmouseout="c()" onmouseover="s('all (971 ms, 100%)')"><title>all (971 ms, 100%)</title><rect width="980" height="15" x="10" y="529" fill="#5353C7" rx="2" ry="2"/></g><g class="func_g" onmouseout="c()" onmouseover="s('tar (147 ms, 15.13%)')"><title>tar (147 ms, 15.13%)</title><rect width="148.4" height="15" x="841.6" y="513" fill="#6565CC" rx="2" ry="2"/><text x="844.648" y="523.5" fill="#000" font-family="Verdana" font-size="12">tar</text></g><g class="func_g" onmouseout="c()" onmouseover="s('libc.so.1`syscall (59 ms, 6.07%)')"><title>libc.so.1`syscall (59 ms, 6.07%)</title><rect width="59.2" height="15" x="756.5" y="449" fill="#7575DC" rx="2" ry="2"/><text x="759.478" y="459.5" fill="#000" font-family="Verdana" font-size="12">libc.s..</text></g><g class="func_g" onmouseout="c()" onmouseover="s('tail`_start (2 ms, 0.21%)')"><title>tail`_start (2 ms, 0.21%)</title><rect width="1.8" height="15" x="839.8" y="497" fill="#6B6BC4" rx="2" ry="2"/></g><g class="func_g" onmouseout="c()" onmouseover="s('init`main (5 ms, 0.51%)')"><title>init`main (5 ms, 0.51%)</title><rect width="5.2" height="15" x="10.1" y="481" fill="#5A5ABE" rx="2" ry="2"/></g><g class="func_g" onmouseout="c()" onmouseover="s('nscd`search_dns_withttl (0 ms, 0.00%)')"><title>nscd`search_dns_withttl (0 ms, 0.00%)</title><rect width=".3" height="15" x="838.7" y="385" fill="#7070E5" rx="2" ry="2"/></g><g class="func_g" onmouseout="c()" onmouseover="s('mysqld`buf_page_get_gen (229 ms, 23.58%)')"><title>mysqld`buf_page_get_gen (229 ms, 23.58%)</title><rect width="231" height="15" x="16.3" y="129" fill="#5555F0" rx="2" ry="2"/><text x="19.276" y="139.5" fill="#000" font-family="Verdana" font-size="12">mysqld`buf_page_get_gen</text></g><g class="func_g" onmouseout="c()" onmouseover="s('0x8391f3a (0 ms, 0.00%)')"><title>0x8391f3a (0 ms, 0.00%)</title><rect width=".4" height="15" x="839.2" y="481" fill="#7A7AD5" rx="2" ry="2"/></g><g class="func_g" onmouseout="c()" onmouseover="s('rsyslogd`wtpWorker (0 ms, 0.00%)')"><title>rsyslogd`wtpWorker (0 ms, 0.00%)</title><rect width=".2" height="15" x="839.6" y="465" fill="#5B5BEE" rx="2" ry="2"/></g><g class="func_g" onmouseout="c()" onmouseover="s('mysqld`join_read_const (478 ms, 49.21%)')"><title>mysqld`join_read_const (478 ms, 49.21%)</title><rect width="482.2" height="15" x="273.8" y="241" fill="#5959C7" rx="2" ry="2"/><text x="276.832" y="251.5" fill="#000" font-family="Verdana" font-size="12">mysqld`join_read_const</text></g><g class="func_g" onmouseout="c()" onmouseover="s('libc.so.1`_thrp_setup (0 ms, 0.00%)')"><title>libc.so.1`_thrp_setup (0 ms, 0.00%)</title><rect width=".2" height="15" x="839.6" y="481" fill="#6161CB" rx="2" ry="2"/></g><g class="func_g" onmouseout="c()" onmouseover="s('mysqld`buf_read_page_low (229 ms, 23.58%)')"><title>mysqld`buf_read_page_low (229 ms, 23.58%)</title><rect width="231" height="15" x="16.3" y="97" fill="#8383CA" rx="2" ry="2"/><text x="19.276" y="107.5" fill="#000" font-family="Verdana" font-size="12">mysqld`buf_read_page_low</text></g><g class="func_g" onmouseout="c()" onmouseover="s('mysqld`SQL_SELECT::test_quick_select (255 ms, 26.25%)')"><title>mysqld`SQL_SELECT::test_quick_select (255 ms, 26.25%)</title><rect width="257.5" height="15" x="16.3" y="257" fill="#6666E5" rx="2" ry="2"/><text x="19.276" y="267.5" fill="#000" font-family="Verdana" font-size="12">mysqld`SQL_SELECT::test_quick_select</text></g><g class="func_g" onmouseout="c()" onmouseover="s('rsyslogd`llExecFunc (0 ms, 0.00%)')"><title>rsyslogd`llExecFunc (0 ms, 0.00%)</title><rect width=".2" height="15" x="839.6" y="337" fill="#7171BE" rx="2" ry="2"/></g><g class="func_g" onmouseout="c()" onmouseover="s('mysqld`handle_one_connection (733 ms, 75.47%)')"><title>mysqld`handle_one_connection (733 ms, 75.47%)</title><rect width="739.8" height="15" x="16.2" y="449" fill="#8080F2" rx="2" ry="2"/><text x="19.221" y="459.5" fill="#000" font-family="Verdana" font-size="12">mysqld`handle_one_connection</text></g><g class="func_g" onmouseout="c()" onmouseover="s('mysqld`join_read_const_table (478 ms, 49.21%)')"><title>mysqld`join_read_const_table (478 ms, 49.21%)</title><rect width="482.2" height="15" x="273.8" y="257" fill="#7E7EEE" rx="2" ry="2"/><text x="276.832" y="267.5" fill="#000" font-family="Verdana" font-size="12">mysqld`join_read_const_table</text></g><g class="func_g" onmouseout="c()" onmouseover="s('tar`main (147 ms, 15.13%)')"><title>tar`main (147 ms, 15.13%)</title><rect width="148.4" height="15" x="841.6" y="481" fill="#5858DC" rx="2" ry="2"/><text x="844.648" y="491.5" fill="#000" font-family="Verdana" font-size="12">tar`main</text></g><g class="func_g" onmouseout="c()" onmouseover="s('mysqld`handle_select (733 ms, 75.47%)')"><title>mysqld`handle_select (733 ms, 75.47%)</title><rect width="739.8" height="15" x="16.2" y="321" fill="#5B5BD9" rx="2" ry="2"/><text x="19.221" y="331.5" fill="#000" font-family="Verdana" font-size="12">mysqld`handle_select</text></g><g class="func_g" onmouseout="c()" onmouseover="s('mysqld`DsMrr_impl::dsmrr_info_const (255 ms, 26.25%)')"><title>mysqld`DsMrr_impl::dsmrr_info_const (255 ms, 26.25%)</title><rect width="257.5" height="15" x="16.3" y="209" fill="#7979CE" rx="2" ry="2"/><text x="19.276" y="219.5" fill="#000" font-family="Verdana" font-size="12">mysqld`DsMrr_impl::dsmrr_info_const</text></g><g class="func_g" onmouseout="c()" onmouseover="s('mysqld`log_buffer_sync_in_background (0 ms, 0.00%)')"><title>mysqld`log_buffer_sync_in_background (0 ms, 0.00%)</title><rect width=".5" height="15" x="756" y="433" fill="#6868EA" rx="2" ry="2"/></g><g class="func_g" onmouseout="c()" onmouseover="s('libc.so.1`_thrp_setup (735 ms, 75.67%)')"><title>libc.so.1`_thrp_setup (735 ms, 75.67%)</title><rect width="741.2" height="15" x="15.3" y="481" fill="#7F7FD2" rx="2" ry="2"/><text x="18.316" y="491.5" fill="#000" font-family="Verdana" font-size="12">libc.so.1`_thrp_setup</text></g><g class="func_g" onmouseout="c()" onmouseover="s('nscd`_nscd_restart_if_cfgfile_changed (59 ms, 6.07%)')"><title>nscd`_nscd_restart_if_cfgfile_changed (59 ms, 6.07%)</title><rect width="59.2" height="15" x="756.5" y="465" fill="#5B5BD9" rx="2" ry="2"/><text x="759.478" y="475.5" fill="#000" font-family="Verdana" font-size="12">nscd`_..</text></g><g class="func_g" onmouseout="c()" onmouseover="s('mysqld`buf_flush_page (0 ms, 0.00%)')"><title>mysqld`buf_flush_page (0 ms, 0.00%)</title><rect width=".1" height="15" x="15.7" y="401" fill="#7B7BD2" rx="2" ry="2"/></g><g class="func_g" onmouseout="c()" onmouseover="s('tar`dorep (147 ms, 15.13%)')"><title>tar`dorep (147 ms, 15.13%)</title><rect width="148.4" height="15" x="841.6" y="465" fill="#8686EF" rx="2" ry="2"/><text x="844.648" y="475.5" fill="#000" font-family="Verdana" font-size="12">tar`dorep</text></g><g class="func_g" onmouseout="c()" onmouseover="s('mysqld`os_file_write_func (0 ms, 0.00%)')"><title>mysqld`os_file_write_func (0 ms, 0.00%)</title><rect width=".4" height="15" x="15.8" y="417" fill="#7979E6" rx="2" ry="2"/></g><g class="func_g" onmouseout="c()" onmouseover="s('mysqld`os_file_pread (26 ms, 2.68%)')"><title>mysqld`os_file_pread (26 ms, 2.68%)</title><rect width="26.5" height="15" x="247.3" y="65" fill="#6666C7" rx="2" ry="2"/><text x="250.273" y="75.5" fill="#000" font-family="Verdana" font-size="12">m..</text></g><g class="func_g" onmouseout="c()" onmouseover="s('mysqld`do_handle_one_connection (733 ms, 75.47%)')"><title>mysqld`do_handle_one_connection (733 ms, 75.47%)</title><rect width="739.8" height="15" x="16.2" y="433" fill="#8787CA" rx="2" ry="2"/><text x="19.221" y="443.5" fill="#000" font-family="Verdana" font-size="12">mysqld`do_handle_one_connection</text></g><g class="func_g" onmouseout="c()" onmouseover="s('rsyslogd`processBatch (0 ms, 0.00%)')"><title>rsyslogd`processBatch (0 ms, 0.00%)</title><rect width=".2" height="15" x="839.6" y="353" fill="#7575EB" rx="2" ry="2"/></g></svg>
