<svg xmlns="http://www.w3.org/2000/svg" xmlns:xlink="http://www.w3.org/1999/xlink" width="1200" height="754" onload="init(evt)" version="1.1" viewBox="0 0 1200 754"><defs><linearGradient id="background" x1="0" x2="0" y1="0" y2="1"><stop offset="5%" stop-color="#eee"/><stop offset="95%" stop-color="#e0e0ff"/></linearGradient></defs><style type="text/css">.func_g:hover{stroke:#000;stroke-width:.5}</style><script type="text/ecmascript"><![CDATA[
	var details;
	function init(evt) { details = document.getElementById("details").firstChild; }
	function s(info) { details.nodeValue = "Function: " + info; }
	function c() { details.nodeValue = ' '; }
]]></script><rect width="1200" height="754" x="0" y="0" fill="url(#background)"/><text x="600" y="40" fill="#000" font-family="Verdana" font-size="25" text-anchor="middle">malloc() bytes</text><g class="func_g" onmouseout="c()" onmouseover="s('bash`rl_begin_undo_group (40 bytes, 0.08%)')"><title>bash`rl_begin_undo_group (40 bytes, 0.08%)</title><rect width="1" height="25" x="1079.9" y="237" fill="#00CC5D" rx="2" ry="2"/></g><g class="func_g" onmouseout="c()" onmouseover="s('bash`test_for_directory (5 bytes, 0.01%)')"><title>bash`test_for_directory (5 bytes, 0.01%)</title><rect width=".1" height="25" x="1079.8" y="211" fill="#00CE2E" rx="2" ry="2"/></g><g class="func_g" onmouseout="c()" onmouseover="s('bash`xmalloc (132 bytes, 0.26%)')"><title>bash`xmalloc (132 bytes, 0.26%)</title><rect width="3.1" height="25" x="1076.7" y="185" fill="#00E60F" rx="2" ry="2"/></g><g class="func_g" onmouseout="c()" onmouseover="s('bash`execute_simple_command (4,517 bytes, 8.96%)')"><title>bash`execute_simple_command (4,517 bytes, 8.96%)</title><rect width="105.7" height="25" x="425" y="367" fill="#00DE7D" rx="2" ry="2"/><text x="427.994" y="386.5" fill="#000" font-family="Verdana" font-size="20">bash`e..</text></g><g class="func_g" onmouseout="c()" onmouseover="s('bash`parameter_brace_remove_pattern (4,444 bytes, 8.82%)')"><title>bash`parameter_brace_remove_pattern (4,444 bytes, 8.82%)</title><rect width="104" height="25" x="426.7" y="211" fill="#00E2E1" rx="2" ry="2"/><text x="429.703" y="230.5" fill="#000" font-family="Verdana" font-size="20">bash`p..</text></g><g class="func_g" onmouseout="c()" onmouseover="s('bash`malloc (92 bytes, 0.18%)')"><title>bash`malloc (92 bytes, 0.18%)</title><rect width="2.1" height="25" x="16" y="393" fill="#00E125" rx="2" ry="2"/></g><g class="func_g" onmouseout="c()" onmouseover="s('bash`main (50,408 bytes, 100.00%)')"><title>bash`main (50,408 bytes, 100.00%)</title><rect width="1180" height="25" x="10" y="627" fill="#00E17C" rx="2" ry="2"/><text x="13" y="646.5" fill="#000" font-family="Verdana" font-size="20">bash`main</text></g><g class="func_g" onmouseout="c()" onmouseover="s('bash`rl_completion_matches (394 bytes, 0.78%)')"><title>bash`rl_completion_matches (394 bytes, 0.78%)</title><rect width="9.2" height="25" x="1154.9" y="289" fill="#00C032" rx="2" ry="2"/></g><g class="func_g" onmouseout="c()" onmouseover="s('bash`malloc (100 bytes, 0.20%)')"><title>bash`malloc (100 bytes, 0.20%)</title><rect width="2.3" height="25" x="586.7" y="185" fill="#00CF24" rx="2" ry="2"/></g><g class="func_g" onmouseout="c()" onmouseover="s('bash`rl_display_match_list (621 bytes, 1.23%)')"><title>bash`rl_display_match_list (621 bytes, 1.23%)</title><rect width="14.5" height="25" x="590.1" y="263" fill="#00DD74" rx="2" ry="2"/></g><g class="func_g" onmouseout="c()" onmouseover="s('bash`rl_end_undo_group (40 bytes, 0.08%)')"><title>bash`rl_end_undo_group (40 bytes, 0.08%)</title><rect width="1" height="25" x="1081.9" y="237" fill="#00CE8F" rx="2" ry="2"/></g><g class="func_g" onmouseout="c()" onmouseover="s('bash`xdupmbstowcs (10,496 bytes, 20.82%)')"><title>bash`xdupmbstowcs (10,496 bytes, 20.82%)</title><rect width="245.7" height="25" x="18.1" y="393" fill="#00D65A" rx="2" ry="2"/><text x="21.146" y="412.5" fill="#000" font-family="Verdana" font-size="20">bash`xdupmbstowcs</text></g><g class="func_g" onmouseout="c()" onmouseover="s('bash`postprocess_matches (3,036 bytes, 6.02%)')"><title>bash`postprocess_matches (3,036 bytes, 6.02%)</title><rect width="71.1" height="25" x="1083.8" y="289" fill="#00E675" rx="2" ry="2"/><text x="1086.793" y="308.5" fill="#000" font-family="Verdana" font-size="20">bash..</text></g><g class="func_g" onmouseout="c()" onmouseover="s('bash`rl_filename_completion_function (3,510 bytes, 6.96%)')"><title>bash`rl_filename_completion_function (3,510 bytes, 6.96%)</title><rect width="82.1" height="25" x="994.2" y="159" fill="#00EE47" rx="2" ry="2"/><text x="997.16" y="178.5" fill="#000" font-family="Verdana" font-size="20">bash..</text></g><g class="func_g" onmouseout="c()" onmouseover="s('bash`malloc (562 bytes, 1.11%)')"><title>bash`malloc (562 bytes, 1.11%)</title><rect width="13.1" height="25" x="591.5" y="159" fill="#00C525" rx="2" ry="2"/></g><g class="func_g" onmouseout="c()" onmouseover="s('bash`malloc (528 bytes, 1.05%)')"><title>bash`malloc (528 bytes, 1.05%)</title><rect width="12.3" height="25" x="1165.3" y="289" fill="#00EE62" rx="2" ry="2"/></g><g class="func_g" onmouseout="c()" onmouseover="s('bash`remove_pattern (4,444 bytes, 8.82%)')"><title>bash`remove_pattern (4,444 bytes, 8.82%)</title><rect width="104" height="25" x="426.7" y="185" fill="#00CD8D" rx="2" ry="2"/><text x="429.703" y="204.5" fill="#000" font-family="Verdana" font-size="20">bash`r..</text></g><g class="func_g" onmouseout="c()" onmouseover="s('bash`malloc (32 bytes, 0.06%)')"><title>bash`malloc (32 bytes, 0.06%)</title><rect width=".8" height="25" x="1164.5" y="341" fill="#00D8C7" rx="2" ry="2"/></g><g class="func_g" onmouseout="c()" onmouseover="s('bash`parse_and_execute (4,517 bytes, 8.96%)')"><title>bash`parse_and_execute (4,517 bytes, 8.96%)</title><rect width="105.7" height="25" x="425" y="497" fill="#00CC0F" rx="2" ry="2"/><text x="427.994" y="516.5" fill="#000" font-family="Verdana" font-size="20">bash`p..</text></g><g class="func_g" onmouseout="c()" onmouseover="s('bash`history_filename (60 bytes, 0.12%)')"><title>bash`history_filename (60 bytes, 0.12%)</title><rect width="1.4" height="25" x="425" y="211" fill="#00C4D5" rx="2" ry="2"/></g><g class="func_g" onmouseout="c()" onmouseover="s('bash`malloc (10 bytes, 0.02%)')"><title>bash`malloc (10 bytes, 0.02%)</title><rect width=".2" height="25" x="1076.4" y="55" fill="#00DDC4" rx="2" ry="2"/></g><g class="func_g" onmouseout="c()" onmouseover="s('bash`malloc (6,400 bytes, 12.70%)')"><title>bash`malloc (6,400 bytes, 12.70%)</title><rect width="149.9" height="25" x="263.8" y="341" fill="#00D55F" rx="2" ry="2"/><text x="266.847" y="360.5" fill="#000" font-family="Verdana" font-size="20">bash`malloc</text></g><g class="func_g" onmouseout="c()" onmouseover="s('bash`readline_internal_teardown (32 bytes, 0.06%)')"><title>bash`readline_internal_teardown (32 bytes, 0.06%)</title><rect width=".8" height="25" x="1164.5" y="393" fill="#00E759" rx="2" ry="2"/></g><g class="func_g" onmouseout="c()" onmouseover="s('bash`alloc_undo_entry (20 bytes, 0.04%)')"><title>bash`alloc_undo_entry (20 bytes, 0.04%)</title><rect width=".5" height="25" x="589" y="237" fill="#00D443" rx="2" ry="2"/></g><g class="func_g" onmouseout="c()" onmouseover="s('bash`xstrmatch (6,400 bytes, 12.70%)')"><title>bash`xstrmatch (6,400 bytes, 12.70%)</title><rect width="149.9" height="25" x="263.8" y="393" fill="#00C211" rx="2" ry="2"/><text x="266.847" y="412.5" fill="#000" font-family="Verdana" font-size="20">bash`xstrm..</text></g><g class="func_g" onmouseout="c()" onmouseover="s('bash`malloc (349 bytes, 0.69%)')"><title>bash`malloc (349 bytes, 0.69%)</title><rect width="8.2" height="25" x="1154.9" y="211" fill="#00DB62" rx="2" ry="2"/></g><g class="func_g" onmouseout="c()" onmouseover="s('bash`rl_completion_matches (20,171 bytes, 40.02%)')"><title>bash`rl_completion_matches (20,171 bytes, 40.02%)</title><rect width="472.2" height="25" x="607.6" y="211" fill="#00C09D" rx="2" ry="2"/><text x="610.631" y="230.5" fill="#000" font-family="Verdana" font-size="20">bash`rl_completion_matches</text></g><g class="func_g" onmouseout="c()" onmouseover="s('bash`xmalloc (5 bytes, 0.01%)')"><title>bash`xmalloc (5 bytes, 0.01%)</title><rect width=".1" height="25" x="1081.8" y="185" fill="#00C782" rx="2" ry="2"/></g><g class="func_g" onmouseout="c()" onmouseover="s('bash`rl_add_undo (40 bytes, 0.08%)')"><title>bash`rl_add_undo (40 bytes, 0.08%)</title><rect width=".9" height="25" x="1080.9" y="211" fill="#00E7B3" rx="2" ry="2"/></g><g class="func_g" onmouseout="c()" onmouseover="s('bash`yy_readline_get (25,774 bytes, 51.13%)')"><title>bash`yy_readline_get (25,774 bytes, 51.13%)</title><rect width="603.3" height="25" x="586.7" y="445" fill="#00EE15" rx="2" ry="2"/><text x="589.657" y="464.5" fill="#000" font-family="Verdana" font-size="20">bash`yy_readline_get</text></g><g class="func_g" onmouseout="c()" onmouseover="s('bash`xmalloc (49 bytes, 0.10%)')"><title>bash`xmalloc (49 bytes, 0.10%)</title><rect width="1.2" height="25" x="530.7" y="263" fill="#00D945" rx="2" ry="2"/></g><g class="func_g" onmouseout="c()" onmouseover="s('bash`expand_word_internal (4,444 bytes, 8.82%)')"><title>bash`expand_word_internal (4,444 bytes, 8.82%)</title><rect width="104" height="25" x="426.7" y="315" fill="#00EE39" rx="2" ry="2"/><text x="429.703" y="334.5" fill="#000" font-family="Verdana" font-size="20">bash`e..</text></g><g class="func_g" onmouseout="c()" onmouseover="s('bash`execute_builtin (73 bytes, 0.14%)')"><title>bash`execute_builtin (73 bytes, 0.14%)</title><rect width="1.7" height="25" x="425" y="341" fill="#00C0B3" rx="2" ry="2"/></g><g class="func_g" onmouseout="c()" onmouseover="s('libc.so.1`strcoll (480 bytes, 0.95%)')"><title>libc.so.1`strcoll (480 bytes, 0.95%)</title><rect width="11.2" height="25" x="413.8" y="367" fill="#00E6E2" rx="2" ry="2"/></g><g class="func_g" onmouseout="c()" onmouseover="s('bash`execute_simple_command (17,728 bytes, 35.17%)')"><title>bash`execute_simple_command (17,728 bytes, 35.17%)</title><rect width="415" height="25" x="10" y="523" fill="#00EC58" rx="2" ry="2"/><text x="13" y="542.5" fill="#000" font-family="Verdana" font-size="20">bash`execute_simple_command</text></g><g class="func_g" onmouseout="c()" onmouseover="s('bash`rl_add_undo (40 bytes, 0.08%)')"><title>bash`rl_add_undo (40 bytes, 0.08%)</title><rect width=".9" height="25" x="1082.9" y="211" fill="#00DBC9" rx="2" ry="2"/></g><g class="func_g" onmouseout="c()" onmouseover="s('bash`bash_tilde_expand (13 bytes, 0.03%)')"><title>bash`bash_tilde_expand (13 bytes, 0.03%)</title><rect width=".3" height="25" x="1076.3" y="133" fill="#00DF65" rx="2" ry="2"/></g><g class="func_g" onmouseout="c()" onmouseover="s('bash`xmalloc (8 bytes, 0.02%)')"><title>bash`xmalloc (8 bytes, 0.02%)</title><rect width=".2" height="25" x="1164.1" y="263" fill="#00C91D" rx="2" ry="2"/></g><g class="func_g" onmouseout="c()" onmouseover="s('bash`glob_pattern_p (16,512 bytes, 32.76%)')"><title>bash`glob_pattern_p (16,512 bytes, 32.76%)</title><rect width="386.6" height="25" x="607.6" y="159" fill="#00D74E" rx="2" ry="2"/><text x="610.631" y="178.5" fill="#000" font-family="Verdana" font-size="20">bash`glob_pattern_p</text></g><g class="func_g" onmouseout="c()" onmouseover="s('bash`xmalloc (44 bytes, 0.09%)')"><title>bash`xmalloc (44 bytes, 0.09%)</title><rect width="1" height="25" x="1163.1" y="263" fill="#00CC0E" rx="2" ry="2"/></g><g class="func_g" onmouseout="c()" onmouseover="s('bash`bash_default_completion (20,304 bytes, 40.28%)')"><title>bash`bash_default_completion (20,304 bytes, 40.28%)</title><rect width="475.3" height="25" x="604.6" y="237" fill="#00C529" rx="2" ry="2"/><text x="607.635" y="256.5" fill="#000" font-family="Verdana" font-size="20">bash`bash_default_completion</text></g><g class="func_g" onmouseout="c()" onmouseover="s('bash`xmalloc (3,510 bytes, 6.96%)')"><title>bash`xmalloc (3,510 bytes, 6.96%)</title><rect width="82.1" height="25" x="994.2" y="133" fill="#00DDBA" rx="2" ry="2"/><text x="997.16" y="152.5" fill="#000" font-family="Verdana" font-size="20">bash..</text></g><g class="func_g" onmouseout="c()" onmouseover="s('bash`xmalloc (20 bytes, 0.04%)')"><title>bash`xmalloc (20 bytes, 0.04%)</title><rect width=".5" height="25" x="589" y="211" fill="#00D667" rx="2" ry="2"/></g><g class="func_g" onmouseout="c()" onmouseover="s('bash`_rl_qsort_string_compare (2,352 bytes, 4.67%)')"><title>bash`_rl_qsort_string_compare (2,352 bytes, 4.67%)</title><rect width="55.1" height="25" x="1099.8" y="237" fill="#00E44F" rx="2" ry="2"/><text x="1102.805" y="256.5" fill="#000" font-family="Verdana" font-size="20">ba..</text></g><g class="func_g" onmouseout="c()" onmouseover="s('bash`xmalloc (528 bytes, 1.05%)')"><title>bash`xmalloc (528 bytes, 1.05%)</title><rect width="12.3" height="25" x="1165.3" y="315" fill="#00D050" rx="2" ry="2"/></g><g class="func_g" onmouseout="c()" onmouseover="s('bash`rl_add_undo (40 bytes, 0.08%)')"><title>bash`rl_add_undo (40 bytes, 0.08%)</title><rect width="1" height="25" x="1081.9" y="211" fill="#00BFC3" rx="2" ry="2"/></g><g class="func_g" onmouseout="c()" onmouseover="s('bash`alloc_undo_entry (40 bytes, 0.08%)')"><title>bash`alloc_undo_entry (40 bytes, 0.08%)</title><rect width=".9" height="25" x="1080.9" y="185" fill="#00E9D4" rx="2" ry="2"/></g><g class="func_g" onmouseout="c()" onmouseover="s('bash`tilde_expand (13 bytes, 0.03%)')"><title>bash`tilde_expand (13 bytes, 0.03%)</title><rect width=".3" height="25" x="1076.3" y="107" fill="#00E2DA" rx="2" ry="2"/></g><g class="func_g" onmouseout="c()" onmouseover="s('bash`malloc (11 bytes, 0.02%)')"><title>bash`malloc (11 bytes, 0.02%)</title><rect width=".2" height="25" x="1164.3" y="263" fill="#00CF9F" rx="2" ry="2"/></g><g class="func_g" onmouseout="c()" onmouseover="s('bash`read_token (28,163 bytes, 55.87%)')"><title>bash`read_token (28,163 bytes, 55.87%)</title><rect width="659.3" height="25" x="530.7" y="497" fill="#00EA92" rx="2" ry="2"/><text x="533.733" y="516.5" fill="#000" font-family="Verdana" font-size="20">bash`read_token</text></g><g class="func_g" onmouseout="c()" onmouseover="s('bash`bash_add_history (85 bytes, 0.17%)')"><title>bash`bash_add_history (85 bytes, 0.17%)</title><rect width="2" height="25" x="530.7" y="367" fill="#00C6D7" rx="2" ry="2"/></g><g class="func_g" onmouseout="c()" onmouseover="s('bash`malloc (128 bytes, 0.25%)')"><title>bash`malloc (128 bytes, 0.25%)</title><rect width="3" height="25" x="13" y="341" fill="#00E6C9" rx="2" ry="2"/></g><g class="func_g" onmouseout="c()" onmouseover="s('libc.so.1`qsort (2,352 bytes, 4.67%)')"><title>libc.so.1`qsort (2,352 bytes, 4.67%)</title><rect width="55.1" height="25" x="1099.8" y="263" fill="#00CF0B" rx="2" ry="2"/><text x="1102.805" y="282.5" fill="#000" font-family="Verdana" font-size="20">li..</text></g><g class="func_g" onmouseout="c()" onmouseover="s('bash`malloc (10,496 bytes, 20.82%)')"><title>bash`malloc (10,496 bytes, 20.82%)</title><rect width="245.7" height="25" x="18.1" y="367" fill="#00E86D" rx="2" ry="2"/><text x="21.146" y="386.5" fill="#000" font-family="Verdana" font-size="20">bash`malloc</text></g><g class="func_g" onmouseout="c()" onmouseover="s('bash`readline (25,774 bytes, 51.13%)')"><title>bash`readline (25,774 bytes, 51.13%)</title><rect width="603.3" height="25" x="586.7" y="419" fill="#00E16E" rx="2" ry="2"/><text x="589.657" y="438.5" fill="#000" font-family="Verdana" font-size="20">bash`readline</text></g><g class="func_g" onmouseout="c()" onmouseover="s('bash`malloc (132 bytes, 0.26%)')"><title>bash`malloc (132 bytes, 0.26%)</title><rect width="3.1" height="25" x="1076.7" y="159" fill="#00E478" rx="2" ry="2"/></g><g class="func_g" onmouseout="c()" onmouseover="s('bash`tilde_expand (621 bytes, 1.23%)')"><title>bash`tilde_expand (621 bytes, 1.23%)</title><rect width="14.5" height="25" x="590.1" y="211" fill="#00C594" rx="2" ry="2"/></g><g class="func_g" onmouseout="c()" onmouseover="s('bash`execute_command_internal (4,517 bytes, 8.96%)')"><title>bash`execute_command_internal (4,517 bytes, 8.96%)</title><rect width="105.7" height="25" x="425" y="471" fill="#00E512" rx="2" ry="2"/><text x="427.994" y="490.5" fill="#000" font-family="Verdana" font-size="20">bash`e..</text></g><g class="func_g" onmouseout="c()" onmouseover="s('bash`parse_command (32,680 bytes, 64.83%)')"><title>bash`parse_command (32,680 bytes, 64.83%)</title><rect width="765" height="25" x="425" y="549" fill="#00C95D" rx="2" ry="2"/><text x="427.994" y="568.5" fill="#000" font-family="Verdana" font-size="20">bash`parse_command</text></g><g class="func_g" onmouseout="c()" onmouseover="s('bash`history_builtin (73 bytes, 0.14%)')"><title>bash`history_builtin (73 bytes, 0.14%)</title><rect width="1.7" height="25" x="425" y="315" fill="#00C66E" rx="2" ry="2"/></g><g class="func_g" onmouseout="c()" onmouseover="s('all (50,408 bytes, 100%)')"><title>all (50,408 bytes, 100%)</title><rect width="1180" height="25" x="10" y="679" fill="#00ECBD" rx="2" ry="2"/></g><g class="func_g" onmouseout="c()" onmouseover="s('bash`malloc (40 bytes, 0.08%)')"><title>bash`malloc (40 bytes, 0.08%)</title><rect width="1" height="25" x="1081.9" y="133" fill="#00C4AF" rx="2" ry="2"/></g><g class="func_g" onmouseout="c()" onmouseover="s('bash`malloc (128 bytes, 0.25%)')"><title>bash`malloc (128 bytes, 0.25%)</title><rect width="3" height="25" x="604.6" y="159" fill="#00E3D9" rx="2" ry="2"/></g><g class="func_g" onmouseout="c()" onmouseover="s('bash`malloc (16,512 bytes, 32.76%)')"><title>bash`malloc (16,512 bytes, 32.76%)</title><rect width="386.6" height="25" x="607.6" y="107" fill="#00D77F" rx="2" ry="2"/><text x="610.631" y="126.5" fill="#000" font-family="Verdana" font-size="20">bash`malloc</text></g><g class="func_g" onmouseout="c()" onmouseover="s('bash`expand_word_list_internal (4,444 bytes, 8.82%)')"><title>bash`expand_word_list_internal (4,444 bytes, 8.82%)</title><rect width="104" height="25" x="426.7" y="341" fill="#00E6CE" rx="2" ry="2"/><text x="429.703" y="360.5" fill="#000" font-family="Verdana" font-size="20">bash`e..</text></g><g class="func_g" onmouseout="c()" onmouseover="s('bash`xmalloc (32 bytes, 0.06%)')"><title>bash`xmalloc (32 bytes, 0.06%)</title><rect width=".8" height="25" x="1164.5" y="367" fill="#00D7BC" rx="2" ry="2"/></g><g class="func_g" onmouseout="c()" onmouseover="s('bash`rl_add_undo (100 bytes, 0.20%)')"><title>bash`rl_add_undo (100 bytes, 0.20%)</title><rect width="2.3" height="25" x="586.7" y="263" fill="#00C70D" rx="2" ry="2"/></g><g class="func_g" onmouseout="c()" onmouseover="s('bash`shell_getc (28,163 bytes, 55.87%)')"><title>bash`shell_getc (28,163 bytes, 55.87%)</title><rect width="659.3" height="25" x="530.7" y="471" fill="#00E773" rx="2" ry="2"/><text x="533.733" y="490.5" fill="#000" font-family="Verdana" font-size="20">bash`shell_getc</text></g><g class="func_g" onmouseout="c()" onmouseover="s('bash`tilde_expand_word (59 bytes, 0.12%)')"><title>bash`tilde_expand_word (59 bytes, 0.12%)</title><rect width="1.4" height="25" x="590.1" y="185" fill="#00CA4D" rx="2" ry="2"/></g><g class="func_g" onmouseout="c()" onmouseover="s('bash`maybe_append_history (73 bytes, 0.14%)')"><title>bash`maybe_append_history (73 bytes, 0.14%)</title><rect width="1.7" height="25" x="425" y="289" fill="#00DAD7" rx="2" ry="2"/></g><g class="func_g" onmouseout="c()" onmouseover="s('bash`append_history (73 bytes, 0.14%)')"><title>bash`append_history (73 bytes, 0.14%)</title><rect width="1.7" height="25" x="425" y="263" fill="#00CBD5" rx="2" ry="2"/></g><g class="func_g" onmouseout="c()" onmouseover="s('bash`_start (50,408 bytes, 100.00%)')"><title>bash`_start (50,408 bytes, 100.00%)</title><rect width="1180" height="25" x="10" y="653" fill="#00CF1F" rx="2" ry="2"/><text x="13" y="672.5" fill="#000" font-family="Verdana" font-size="20">bash`_start</text></g><g class="func_g" onmouseout="c()" onmouseover="s('bash`_rl_insert_char (100 bytes, 0.20%)')"><title>bash`_rl_insert_char (100 bytes, 0.20%)</title><rect width="2.3" height="25" x="586.7" y="315" fill="#00C937" rx="2" ry="2"/></g><g class="func_g" onmouseout="c()" onmouseover="s('bash`malloc (3,510 bytes, 6.96%)')"><title>bash`malloc (3,510 bytes, 6.96%)</title><rect width="82.1" height="25" x="994.2" y="107" fill="#00E2DA" rx="2" ry="2"/><text x="997.16" y="126.5" fill="#000" font-family="Verdana" font-size="20">bash..</text></g><g class="func_g" onmouseout="c()" onmouseover="s('bash`_rl_dispatch (24,686 bytes, 48.97%)')"><title>bash`_rl_dispatch (24,686 bytes, 48.97%)</title><rect width="577.8" height="25" x="586.7" y="367" fill="#00CE92" rx="2" ry="2"/><text x="589.657" y="386.5" fill="#000" font-family="Verdana" font-size="20">bash`_rl_dispatch</text></g><g class="func_g" onmouseout="c()" onmouseover="s('bash`xmalloc (562 bytes, 1.11%)')"><title>bash`xmalloc (562 bytes, 1.11%)</title><rect width="13.1" height="25" x="591.5" y="185" fill="#00D0A0" rx="2" ry="2"/></g><g class="func_g" onmouseout="c()" onmouseover="s('bash`append_to_match (25 bytes, 0.05%)')"><title>bash`append_to_match (25 bytes, 0.05%)</title><rect width=".6" height="25" x="589.5" y="289" fill="#00DCE1" rx="2" ry="2"/></g><g class="func_g" onmouseout="c()" onmouseover="s('bash`glob_pattern_p (128 bytes, 0.25%)')"><title>bash`glob_pattern_p (128 bytes, 0.25%)</title><rect width="3" height="25" x="604.6" y="211" fill="#00E808" rx="2" ry="2"/></g><g class="func_g" onmouseout="c()" onmouseover="s('bash`xmalloc (59 bytes, 0.12%)')"><title>bash`xmalloc (59 bytes, 0.12%)</title><rect width="1.4" height="25" x="590.1" y="159" fill="#00DE9E" rx="2" ry="2"/></g><g class="func_g" onmouseout="c()" onmouseover="s('bash`malloc (20 bytes, 0.04%)')"><title>bash`malloc (20 bytes, 0.04%)</title><rect width=".5" height="25" x="589" y="185" fill="#00C204" rx="2" ry="2"/></g><g class="func_g" onmouseout="c()" onmouseover="s('libc.so.1`strcoll (2,352 bytes, 4.67%)')"><title>libc.so.1`strcoll (2,352 bytes, 4.67%)</title><rect width="55.1" height="25" x="1099.8" y="211" fill="#00D34F" rx="2" ry="2"/><text x="1102.805" y="230.5" fill="#000" font-family="Verdana" font-size="20">li..</text></g><g class="func_g" onmouseout="c()" onmouseover="s('bash`malloc (40 bytes, 0.08%)')"><title>bash`malloc (40 bytes, 0.08%)</title><rect width="1" height="25" x="1079.9" y="133" fill="#00E39B" rx="2" ry="2"/></g><g class="func_g" onmouseout="c()" onmouseover="s('bash`alloc_undo_entry (20 bytes, 0.04%)')"><title>bash`alloc_undo_entry (20 bytes, 0.04%)</title><rect width=".5" height="25" x="589.5" y="211" fill="#00D81B" rx="2" ry="2"/></g><g class="func_g" onmouseout="c()" onmouseover="s('bash`param_expand (4,444 bytes, 8.82%)')"><title>bash`param_expand (4,444 bytes, 8.82%)</title><rect width="104" height="25" x="426.7" y="263" fill="#00CA92" rx="2" ry="2"/><text x="429.703" y="282.5" fill="#000" font-family="Verdana" font-size="20">bash`p..</text></g><g class="func_g" onmouseout="c()" onmouseover="s('bash`test_for_directory (13 bytes, 0.03%)')"><title>bash`test_for_directory (13 bytes, 0.03%)</title><rect width=".3" height="25" x="1076.3" y="159" fill="#00BE55" rx="2" ry="2"/></g><g class="func_g" onmouseout="c()" onmouseover="s('bash`xdupmbstowcs (128 bytes, 0.25%)')"><title>bash`xdupmbstowcs (128 bytes, 0.25%)</title><rect width="3" height="25" x="10" y="393" fill="#00EC0F" rx="2" ry="2"/></g><g class="func_g" onmouseout="c()" onmouseover="s('bash`malloc (480 bytes, 0.95%)')"><title>bash`malloc (480 bytes, 0.95%)</title><rect width="11.2" height="25" x="413.8" y="341" fill="#00E0A4" rx="2" ry="2"/></g><g class="func_g" onmouseout="c()" onmouseover="s('bash`rl_set_prompt (1,056 bytes, 2.09%)')"><title>bash`rl_set_prompt (1,056 bytes, 2.09%)</title><rect width="24.7" height="25" x="1165.3" y="393" fill="#00C48C" rx="2" ry="2"/></g><g class="func_g" onmouseout="c()" onmouseover="s('bash`xmalloc (40 bytes, 0.08%)')"><title>bash`xmalloc (40 bytes, 0.08%)</title><rect width="1" height="25" x="1081.9" y="159" fill="#00EF78" rx="2" ry="2"/></g><g class="func_g" onmouseout="c()" onmouseover="s('bash`rl_add_undo (20 bytes, 0.04%)')"><title>bash`rl_add_undo (20 bytes, 0.04%)</title><rect width=".5" height="25" x="589" y="263" fill="#00EB4A" rx="2" ry="2"/></g><g class="func_g" onmouseout="c()" onmouseover="s('bash`xdupmbstowcs (128 bytes, 0.25%)')"><title>bash`xdupmbstowcs (128 bytes, 0.25%)</title><rect width="3" height="25" x="13" y="367" fill="#00D326" rx="2" ry="2"/></g><g class="func_g" onmouseout="c()" onmouseover="s('bash`history_do_write (73 bytes, 0.14%)')"><title>bash`history_do_write (73 bytes, 0.14%)</title><rect width="1.7" height="25" x="425" y="237" fill="#00C9E4" rx="2" ry="2"/></g><g class="func_g" onmouseout="c()" onmouseover="s('bash`xdupmbstowcs (128 bytes, 0.25%)')"><title>bash`xdupmbstowcs (128 bytes, 0.25%)</title><rect width="3" height="25" x="604.6" y="185" fill="#00D72B" rx="2" ry="2"/></g><g class="func_g" onmouseout="c()" onmouseover="s('bash`pre_process_line (2,389 bytes, 4.74%)')"><title>bash`pre_process_line (2,389 bytes, 4.74%)</title><rect width="56" height="25" x="530.7" y="445" fill="#00EB28" rx="2" ry="2"/><text x="533.733" y="464.5" fill="#000" font-family="Verdana" font-size="20">ba..</text></g><g class="func_g" onmouseout="c()" onmouseover="s('bash`xmalloc (36 bytes, 0.07%)')"><title>bash`xmalloc (36 bytes, 0.07%)</title><rect width=".8" height="25" x="531.9" y="289" fill="#00E6DF" rx="2" ry="2"/></g><g class="func_g" onmouseout="c()" onmouseover="s('bash`xdupmbstowcs (6,400 bytes, 12.70%)')"><title>bash`xdupmbstowcs (6,400 bytes, 12.70%)</title><rect width="149.9" height="25" x="263.8" y="367" fill="#00CB66" rx="2" ry="2"/><text x="266.847" y="386.5" fill="#000" font-family="Verdana" font-size="20">bash`xdupm..</text></g><g class="func_g" onmouseout="c()" onmouseover="s('bash`alloc_history_entry (49 bytes, 0.10%)')"><title>bash`alloc_history_entry (49 bytes, 0.10%)</title><rect width="1.2" height="25" x="530.7" y="289" fill="#00DC32" rx="2" ry="2"/></g><g class="func_g" onmouseout="c()" onmouseover="s('bash`malloc (36 bytes, 0.07%)')"><title>bash`malloc (36 bytes, 0.07%)</title><rect width=".8" height="25" x="531.9" y="263" fill="#00D9E1" rx="2" ry="2"/></g><g class="func_g" onmouseout="c()" onmouseover="s('bash`xmalloc (528 bytes, 1.05%)')"><title>bash`xmalloc (528 bytes, 1.05%)</title><rect width="12.4" height="25" x="1177.6" y="367" fill="#00EE3D" rx="2" ry="2"/></g><g class="func_g" onmouseout="c()" onmouseover="s('bash`xmalloc (684 bytes, 1.36%)')"><title>bash`xmalloc (684 bytes, 1.36%)</title><rect width="16" height="25" x="1083.8" y="263" fill="#00EF90" rx="2" ry="2"/></g><g class="func_g" onmouseout="c()" onmouseover="s('bash`xmalloc (10 bytes, 0.02%)')"><title>bash`xmalloc (10 bytes, 0.02%)</title><rect width=".2" height="25" x="1076.4" y="81" fill="#00CA2F" rx="2" ry="2"/></g><g class="func_g" onmouseout="c()" onmouseover="s('bash`rl_insert_text (40 bytes, 0.08%)')"><title>bash`rl_insert_text (40 bytes, 0.08%)</title><rect width=".9" height="25" x="1082.9" y="237" fill="#00CD17" rx="2" ry="2"/></g><g class="func_g" onmouseout="c()" onmouseover="s('bash`rl_add_undo (20 bytes, 0.04%)')"><title>bash`rl_add_undo (20 bytes, 0.04%)</title><rect width=".5" height="25" x="589.5" y="237" fill="#00E706" rx="2" ry="2"/></g><g class="func_g" onmouseout="c()" onmouseover="s('bash`expand_word_list_internal (17,728 bytes, 35.17%)')"><title>bash`expand_word_list_internal (17,728 bytes, 35.17%)</title><rect width="415" height="25" x="10" y="497" fill="#00DB0A" rx="2" ry="2"/><text x="13" y="516.5" fill="#000" font-family="Verdana" font-size="20">bash`expand_word_list_internal</text></g><g class="func_g" onmouseout="c()" onmouseover="s('bash`xmalloc (20 bytes, 0.04%)')"><title>bash`xmalloc (20 bytes, 0.04%)</title><rect width=".5" height="25" x="589.5" y="185" fill="#00E89C" rx="2" ry="2"/></g><g class="func_g" onmouseout="c()" onmouseover="s('bash`xmalloc (60 bytes, 0.12%)')"><title>bash`xmalloc (60 bytes, 0.12%)</title><rect width="1.4" height="25" x="425" y="185" fill="#00E4AE" rx="2" ry="2"/></g><g class="func_g" onmouseout="c()" onmouseover="s('bash`command_word_completion_function (20,035 bytes, 39.75%)')"><title>bash`command_word_completion_function (20,035 bytes, 39.75%)</title><rect width="469" height="25" x="607.6" y="185" fill="#00CCDA" rx="2" ry="2"/><text x="610.631" y="204.5" fill="#000" font-family="Verdana" font-size="20">bash`command_word_completion_function</text></g><g class="func_g" onmouseout="c()" onmouseover="s('bash`glob_vector (17,116 bytes, 33.95%)')"><title>bash`glob_vector (17,116 bytes, 33.95%)</title><rect width="400.7" height="25" x="13" y="419" fill="#00ECA3" rx="2" ry="2"/><text x="15.996" y="438.5" fill="#000" font-family="Verdana" font-size="20">bash`glob_vector</text></g><g class="func_g" onmouseout="c()" onmouseover="s('bash`malloc (8 bytes, 0.02%)')"><title>bash`malloc (8 bytes, 0.02%)</title><rect width=".2" height="25" x="1164.1" y="237" fill="#00D1DB" rx="2" ry="2"/></g><g class="func_g" onmouseout="c()" onmouseover="s('bash`bash_tilde_expand (5 bytes, 0.01%)')"><title>bash`bash_tilde_expand (5 bytes, 0.01%)</title><rect width=".1" height="25" x="1079.8" y="185" fill="#00DB94" rx="2" ry="2"/></g><g class="func_g" onmouseout="c()" onmouseover="s('bash`_rl_replace_text (165 bytes, 0.33%)')"><title>bash`_rl_replace_text (165 bytes, 0.33%)</title><rect width="3.9" height="25" x="1079.9" y="263" fill="#00E70E" rx="2" ry="2"/></g><g class="func_g" onmouseout="c()" onmouseover="s('bash`tilde_expand (5 bytes, 0.01%)')"><title>bash`tilde_expand (5 bytes, 0.01%)</title><rect width=".1" height="25" x="1079.8" y="159" fill="#00DC57" rx="2" ry="2"/></g><g class="func_g" onmouseout="c()" onmouseover="s('bash`reader_loop (50,408 bytes, 100.00%)')"><title>bash`reader_loop (50,408 bytes, 100.00%)</title><rect width="1180" height="25" x="10" y="601" fill="#00C890" rx="2" ry="2"/><text x="13" y="620.5" fill="#000" font-family="Verdana" font-size="20">bash`reader_loop</text></g><g class="func_g" onmouseout="c()" onmouseover="s('bash`xmalloc (349 bytes, 0.69%)')"><title>bash`xmalloc (349 bytes, 0.69%)</title><rect width="8.2" height="25" x="1154.9" y="237" fill="#00D475" rx="2" ry="2"/></g><g class="func_g" onmouseout="c()" onmouseover="s('bash`alloc_undo_entry (40 bytes, 0.08%)')"><title>bash`alloc_undo_entry (40 bytes, 0.08%)</title><rect width="1" height="25" x="1081.9" y="185" fill="#00E0B4" rx="2" ry="2"/></g><g class="func_g" onmouseout="c()" onmouseover="s('bash`execute_command (17,728 bytes, 35.17%)')"><title>bash`execute_command (17,728 bytes, 35.17%)</title><rect width="415" height="25" x="10" y="575" fill="#00EA83" rx="2" ry="2"/><text x="13" y="594.5" fill="#000" font-family="Verdana" font-size="20">bash`execute_command</text></g><g class="func_g" onmouseout="c()" onmouseover="s('bash`_rl_dispatch_subseq (24,686 bytes, 48.97%)')"><title>bash`_rl_dispatch_subseq (24,686 bytes, 48.97%)</title><rect width="577.8" height="25" x="586.7" y="341" fill="#00DF1B" rx="2" ry="2"/><text x="589.657" y="360.5" fill="#000" font-family="Verdana" font-size="20">bash`_rl_dispatch_subseq</text></g><g class="func_g" onmouseout="c()" onmouseover="s('bash`glob_filename (17,248 bytes, 34.22%)')"><title>bash`glob_filename (17,248 bytes, 34.22%)</title><rect width="403.8" height="25" x="10" y="445" fill="#00ED78" rx="2" ry="2"/><text x="13" y="464.5" fill="#000" font-family="Verdana" font-size="20">bash`glob_filename</text></g><g class="func_g" onmouseout="c()" onmouseover="s('bash`alloc_undo_entry (40 bytes, 0.08%)')"><title>bash`alloc_undo_entry (40 bytes, 0.08%)</title><rect width="1" height="25" x="1079.9" y="185" fill="#00ED20" rx="2" ry="2"/></g><g class="func_g" onmouseout="c()" onmouseover="s('bash`malloc (2,352 bytes, 4.67%)')"><title>bash`malloc (2,352 bytes, 4.67%)</title><rect width="55.1" height="25" x="1099.8" y="185" fill="#00E373" rx="2" ry="2"/><text x="1102.805" y="204.5" fill="#000" font-family="Verdana" font-size="20">ba..</text></g><g class="func_g" onmouseout="c()" onmouseover="s('bash`execute_command_internal (4,517 bytes, 8.96%)')"><title>bash`execute_command_internal (4,517 bytes, 8.96%)</title><rect width="105.7" height="25" x="425" y="393" fill="#00BF5D" rx="2" ry="2"/><text x="427.994" y="412.5" fill="#000" font-family="Verdana" font-size="20">bash`e..</text></g><g class="func_g" onmouseout="c()" onmouseover="s('bash`execute_command (4,517 bytes, 8.96%)')"><title>bash`execute_command (4,517 bytes, 8.96%)</title><rect width="105.7" height="25" x="425" y="419" fill="#00CF42" rx="2" ry="2"/><text x="427.994" y="438.5" fill="#000" font-family="Verdana" font-size="20">bash`e..</text></g><g class="func_g" onmouseout="c()" onmouseover="s('bash`rl_copy_text (8 bytes, 0.02%)')"><title>bash`rl_copy_text (8 bytes, 0.02%)</title><rect width=".2" height="25" x="1164.1" y="289" fill="#00D3BB" rx="2" ry="2"/></g><g class="func_g" onmouseout="c()" onmouseover="s('bash`maybe_add_history (2,389 bytes, 4.74%)')"><title>bash`maybe_add_history (2,389 bytes, 4.74%)</title><rect width="56" height="25" x="530.7" y="419" fill="#00DE89" rx="2" ry="2"/><text x="533.733" y="438.5" fill="#000" font-family="Verdana" font-size="20">ba..</text></g><g class="func_g" onmouseout="c()" onmouseover="s('bash`rl_delete_text (45 bytes, 0.09%)')"><title>bash`rl_delete_text (45 bytes, 0.09%)</title><rect width="1" height="25" x="1080.9" y="237" fill="#00E356" rx="2" ry="2"/></g><g class="func_g" onmouseout="c()" onmouseover="s('bash`yyparse (28,163 bytes, 55.87%)')"><title>bash`yyparse (28,163 bytes, 55.87%)</title><rect width="659.3" height="25" x="530.7" y="523" fill="#00BE42" rx="2" ry="2"/><text x="533.733" y="542.5" fill="#000" font-family="Verdana" font-size="20">bash`yyparse</text></g><g class="func_g" onmouseout="c()" onmouseover="s('bash`malloc (59 bytes, 0.12%)')"><title>bash`malloc (59 bytes, 0.12%)</title><rect width="1.4" height="25" x="590.1" y="133" fill="#00DF7D" rx="2" ry="2"/></g><g class="func_g" onmouseout="c()" onmouseover="s('bash`really_add_history (85 bytes, 0.17%)')"><title>bash`really_add_history (85 bytes, 0.17%)</title><rect width="2" height="25" x="530.7" y="341" fill="#00DE78" rx="2" ry="2"/></g><g class="func_g" onmouseout="c()" onmouseover="s('bash`expand_prompt (528 bytes, 1.05%)')"><title>bash`expand_prompt (528 bytes, 1.05%)</title><rect width="12.3" height="25" x="1165.3" y="341" fill="#00D448" rx="2" ry="2"/></g><g class="func_g" onmouseout="c()" onmouseover="s('bash`execute_variable_command (4,517 bytes, 8.96%)')"><title>bash`execute_variable_command (4,517 bytes, 8.96%)</title><rect width="105.7" height="25" x="425" y="523" fill="#00C151" rx="2" ry="2"/><text x="427.994" y="542.5" fill="#000" font-family="Verdana" font-size="20">bash`e..</text></g><g class="func_g" onmouseout="c()" onmouseover="s('bash`gen_completion_matches (20,304 bytes, 40.28%)')"><title>bash`gen_completion_matches (20,304 bytes, 40.28%)</title><rect width="475.3" height="25" x="604.6" y="289" fill="#00E4D0" rx="2" ry="2"/><text x="607.635" y="308.5" fill="#000" font-family="Verdana" font-size="20">bash`gen_completion_matches</text></g><g class="func_g" onmouseout="c()" onmouseover="s('bash`attempt_shell_completion (20,304 bytes, 40.28%)')"><title>bash`attempt_shell_completion (20,304 bytes, 40.28%)</title><rect width="475.3" height="25" x="604.6" y="263" fill="#00D204" rx="2" ry="2"/><text x="607.635" y="282.5" fill="#000" font-family="Verdana" font-size="20">bash`attempt_shell_completion</text></g><g class="func_g" onmouseout="c()" onmouseover="s('bash`rl_expand_prompt (528 bytes, 1.05%)')"><title>bash`rl_expand_prompt (528 bytes, 1.05%)</title><rect width="12.3" height="25" x="1165.3" y="367" fill="#00E4B1" rx="2" ry="2"/></g><g class="func_g" onmouseout="c()" onmouseover="s('bash`malloc (40 bytes, 0.08%)')"><title>bash`malloc (40 bytes, 0.08%)</title><rect width=".9" height="25" x="1080.9" y="133" fill="#00E230" rx="2" ry="2"/></g><g class="func_g" onmouseout="c()" onmouseover="s('bash`rl_complete_internal (24,564 bytes, 48.73%)')"><title>bash`rl_complete_internal (24,564 bytes, 48.73%)</title><rect width="575" height="25" x="589.5" y="315" fill="#00DFAA" rx="2" ry="2"/><text x="592.513" y="334.5" fill="#000" font-family="Verdana" font-size="20">bash`rl_complete_internal</text></g><g class="func_g" onmouseout="c()" onmouseover="s('bash`xmalloc (40 bytes, 0.08%)')"><title>bash`xmalloc (40 bytes, 0.08%)</title><rect width="1" height="25" x="1079.9" y="159" fill="#00EE68" rx="2" ry="2"/></g><g class="func_g" onmouseout="c()" onmouseover="s('bash`strvec_sort (480 bytes, 0.95%)')"><title>bash`strvec_sort (480 bytes, 0.95%)</title><rect width="11.2" height="25" x="413.8" y="445" fill="#00D868" rx="2" ry="2"/></g><g class="func_g" onmouseout="c()" onmouseover="s('bash`malloc (528 bytes, 1.05%)')"><title>bash`malloc (528 bytes, 1.05%)</title><rect width="12.4" height="25" x="1177.6" y="341" fill="#00DAA3" rx="2" ry="2"/></g><g class="func_g" onmouseout="c()" onmouseover="s('bash`tilde_expand (5 bytes, 0.01%)')"><title>bash`tilde_expand (5 bytes, 0.01%)</title><rect width=".1" height="25" x="590" y="263" fill="#00DB9B" rx="2" ry="2"/></g><g class="func_g" onmouseout="c()" onmouseover="s('bash`xmalloc (11 bytes, 0.02%)')"><title>bash`xmalloc (11 bytes, 0.02%)</title><rect width=".2" height="25" x="1164.3" y="289" fill="#00D74B" rx="2" ry="2"/></g><g class="func_g" onmouseout="c()" onmouseover="s('bash`malloc (1,628 bytes, 3.23%)')"><title>bash`malloc (1,628 bytes, 3.23%)</title><rect width="38.1" height="25" x="492.6" y="133" fill="#00D26D" rx="2" ry="2"/><text x="495.623" y="152.5" fill="#000" font-family="Verdana" font-size="20">b..</text></g><g class="func_g" onmouseout="c()" onmouseover="s('bash`malloc (60 bytes, 0.12%)')"><title>bash`malloc (60 bytes, 0.12%)</title><rect width="1.4" height="25" x="425" y="159" fill="#00E017" rx="2" ry="2"/></g><g class="func_g" onmouseout="c()" onmouseover="s('bash`rl_delete_text (22 bytes, 0.04%)')"><title>bash`rl_delete_text (22 bytes, 0.04%)</title><rect width=".5" height="25" x="589" y="289" fill="#00C143" rx="2" ry="2"/></g><g class="func_g" onmouseout="c()" onmouseover="s('bash`add_history (85 bytes, 0.17%)')"><title>bash`add_history (85 bytes, 0.17%)</title><rect width="2" height="25" x="530.7" y="315" fill="#00D952" rx="2" ry="2"/></g><g class="func_g" onmouseout="c()" onmouseover="s('bash`rl_copy_text (5 bytes, 0.01%)')"><title>bash`rl_copy_text (5 bytes, 0.01%)</title><rect width=".1" height="25" x="1081.8" y="211" fill="#00DB7E" rx="2" ry="2"/></g><g class="func_g" onmouseout="c()" onmouseover="s('bash`rl_insert_text (20 bytes, 0.04%)')"><title>bash`rl_insert_text (20 bytes, 0.04%)</title><rect width=".5" height="25" x="589.5" y="263" fill="#00DF3D" rx="2" ry="2"/></g><g class="func_g" onmouseout="c()" onmouseover="s('bash`malloc (5 bytes, 0.01%)')"><title>bash`malloc (5 bytes, 0.01%)</title><rect width=".1" height="25" x="1081.8" y="159" fill="#00E022" rx="2" ry="2"/></g><g class="func_g" onmouseout="c()" onmouseover="s('bash`xdupmbstowcs (2,304 bytes, 4.57%)')"><title>bash`xdupmbstowcs (2,304 bytes, 4.57%)</title><rect width="54" height="25" x="532.7" y="341" fill="#00C1A8" rx="2" ry="2"/><text x="535.723" y="360.5" fill="#000" font-family="Verdana" font-size="20">ba..</text></g><g class="func_g" onmouseout="c()" onmouseover="s('bash`xstrmatch (2,304 bytes, 4.57%)')"><title>bash`xstrmatch (2,304 bytes, 4.57%)</title><rect width="54" height="25" x="532.7" y="367" fill="#00DAE2" rx="2" ry="2"/><text x="535.723" y="386.5" fill="#000" font-family="Verdana" font-size="20">ba..</text></g><g class="func_g" onmouseout="c()" onmouseover="s('bash`print_filename (621 bytes, 1.23%)')"><title>bash`print_filename (621 bytes, 1.23%)</title><rect width="14.5" height="25" x="590.1" y="237" fill="#00E7C3" rx="2" ry="2"/></g><g class="func_g" onmouseout="c()" onmouseover="s('bash`xdupmbstowcs (2,816 bytes, 5.59%)')"><title>bash`xdupmbstowcs (2,816 bytes, 5.59%)</title><rect width="65.9" height="25" x="426.7" y="159" fill="#00C764" rx="2" ry="2"/><text x="429.703" y="178.5" fill="#000" font-family="Verdana" font-size="20">bas..</text></g><g class="func_g" onmouseout="c()" onmouseover="s('bash`xdupmbstowcs (16,512 bytes, 32.76%)')"><title>bash`xdupmbstowcs (16,512 bytes, 32.76%)</title><rect width="386.6" height="25" x="607.6" y="133" fill="#00E4B7" rx="2" ry="2"/><text x="610.631" y="152.5" fill="#000" font-family="Verdana" font-size="20">bash`xdupmbstowcs</text></g><g class="func_g" onmouseout="c()" onmouseover="s('bash`readline_internal_char (24,686 bytes, 48.97%)')"><title>bash`readline_internal_char (24,686 bytes, 48.97%)</title><rect width="577.8" height="25" x="586.7" y="393" fill="#00E4B4" rx="2" ry="2"/><text x="589.657" y="412.5" fill="#000" font-family="Verdana" font-size="20">bash`readline_internal_char</text></g><g class="func_g" onmouseout="c()" onmouseover="s('bash`execute_connection (4,517 bytes, 8.96%)')"><title>bash`execute_connection (4,517 bytes, 8.96%)</title><rect width="105.7" height="25" x="425" y="445" fill="#00BF96" rx="2" ry="2"/><text x="427.994" y="464.5" fill="#000" font-family="Verdana" font-size="20">bash`e..</text></g><g class="func_g" onmouseout="c()" onmouseover="s('bash`malloc (44 bytes, 0.09%)')"><title>bash`malloc (44 bytes, 0.09%)</title><rect width="1" height="25" x="1163.1" y="237" fill="#00C3B6" rx="2" ry="2"/></g><g class="func_g" onmouseout="c()" onmouseover="s('bash`xmalloc (40 bytes, 0.08%)')"><title>bash`xmalloc (40 bytes, 0.08%)</title><rect width=".9" height="25" x="1080.9" y="159" fill="#00C62B" rx="2" ry="2"/></g><g class="func_g" onmouseout="c()" onmouseover="s('libc.so.1`wcsdup (1,628 bytes, 3.23%)')"><title>libc.so.1`wcsdup (1,628 bytes, 3.23%)</title><rect width="38.1" height="25" x="492.6" y="159" fill="#00E882" rx="2" ry="2"/><text x="495.623" y="178.5" fill="#000" font-family="Verdana" font-size="20">l..</text></g><g class="func_g" onmouseout="c()" onmouseover="s('bash`malloc (128 bytes, 0.25%)')"><title>bash`malloc (128 bytes, 0.25%)</title><rect width="3" height="25" x="10" y="367" fill="#00EF47" rx="2" ry="2"/></g><g class="func_g" onmouseout="c()" onmouseover="s('bash`alloc_undo_entry (40 bytes, 0.08%)')"><title>bash`alloc_undo_entry (40 bytes, 0.08%)</title><rect width=".9" height="25" x="1082.9" y="185" fill="#00C40D" rx="2" ry="2"/></g><g class="func_g" onmouseout="c()" onmouseover="s('bash`glob_pattern_p (128 bytes, 0.25%)')"><title>bash`glob_pattern_p (128 bytes, 0.25%)</title><rect width="3" height="25" x="10" y="419" fill="#00D078" rx="2" ry="2"/></g><g class="func_g" onmouseout="c()" onmouseover="s('bash`rl_add_undo (40 bytes, 0.08%)')"><title>bash`rl_add_undo (40 bytes, 0.08%)</title><rect width="1" height="25" x="1079.9" y="211" fill="#00DDBA" rx="2" ry="2"/></g><g class="func_g" onmouseout="c()" onmouseover="s('libc.so.1`qsort (480 bytes, 0.95%)')"><title>libc.so.1`qsort (480 bytes, 0.95%)</title><rect width="11.2" height="25" x="413.8" y="419" fill="#00C382" rx="2" ry="2"/></g><g class="func_g" onmouseout="c()" onmouseover="s('bash`shell_glob_filename (17,728 bytes, 35.17%)')"><title>bash`shell_glob_filename (17,728 bytes, 35.17%)</title><rect width="415" height="25" x="10" y="471" fill="#00BE6C" rx="2" ry="2"/><text x="13" y="490.5" fill="#000" font-family="Verdana" font-size="20">bash`shell_glob_filename</text></g><g class="func_g" onmouseout="c()" onmouseover="s('bash`_rl_rubout_char (22 bytes, 0.04%)')"><title>bash`_rl_rubout_char (22 bytes, 0.04%)</title><rect width=".5" height="25" x="589" y="315" fill="#00D94D" rx="2" ry="2"/></g><g class="func_g" onmouseout="c()" onmouseover="s('bash`insert_match (165 bytes, 0.33%)')"><title>bash`insert_match (165 bytes, 0.33%)</title><rect width="3.9" height="25" x="1079.9" y="289" fill="#00C8C4" rx="2" ry="2"/></g><g class="func_g" onmouseout="c()" onmouseover="s('bash`xmalloc (40 bytes, 0.08%)')"><title>bash`xmalloc (40 bytes, 0.08%)</title><rect width=".9" height="25" x="1082.9" y="159" fill="#00D899" rx="2" ry="2"/></g><g class="func_g" onmouseout="c()" onmouseover="s('bash`parameter_brace_expand (4,444 bytes, 8.82%)')"><title>bash`parameter_brace_expand (4,444 bytes, 8.82%)</title><rect width="104" height="25" x="426.7" y="237" fill="#00D894" rx="2" ry="2"/><text x="429.703" y="256.5" fill="#000" font-family="Verdana" font-size="20">bash`p..</text></g><g class="func_g" onmouseout="c()" onmouseover="s('bash`malloc (2,816 bytes, 5.59%)')"><title>bash`malloc (2,816 bytes, 5.59%)</title><rect width="65.9" height="25" x="426.7" y="133" fill="#00DB4C" rx="2" ry="2"/><text x="429.703" y="152.5" fill="#000" font-family="Verdana" font-size="20">bas..</text></g><g class="func_g" onmouseout="c()" onmouseover="s('bash`read_command (32,680 bytes, 64.83%)')"><title>bash`read_command (32,680 bytes, 64.83%)</title><rect width="765" height="25" x="425" y="575" fill="#00E86B" rx="2" ry="2"/><text x="427.994" y="594.5" fill="#000" font-family="Verdana" font-size="20">bash`read_command</text></g><g class="func_g" onmouseout="c()" onmouseover="s('bash`display_matches (621 bytes, 1.23%)')"><title>bash`display_matches (621 bytes, 1.23%)</title><rect width="14.5" height="25" x="590.1" y="289" fill="#00DAE1" rx="2" ry="2"/></g><g class="func_g" onmouseout="c()" onmouseover="s('bash`xmalloc (100 bytes, 0.20%)')"><title>bash`xmalloc (100 bytes, 0.20%)</title><rect width="2.3" height="25" x="586.7" y="211" fill="#00CEDB" rx="2" ry="2"/></g><g class="func_g" onmouseout="c()" onmouseover="s('bash`expand_word_internal (4,444 bytes, 8.82%)')"><title>bash`expand_word_internal (4,444 bytes, 8.82%)</title><rect width="104" height="25" x="426.7" y="289" fill="#00DAE5" rx="2" ry="2"/><text x="429.703" y="308.5" fill="#000" font-family="Verdana" font-size="20">bash`e..</text></g><g class="func_g" onmouseout="c()" onmouseover="s('bash`malloc (49 bytes, 0.10%)')"><title>bash`malloc (49 bytes, 0.10%)</title><rect width="1.2" height="25" x="530.7" y="237" fill="#00E12B" rx="2" ry="2"/></g><g class="func_g" onmouseout="c()" onmouseover="s('bash`glob_pattern_p (128 bytes, 0.25%)')"><title>bash`glob_pattern_p (128 bytes, 0.25%)</title><rect width="3" height="25" x="13" y="393" fill="#00BEBF" rx="2" ry="2"/></g><g class="func_g" onmouseout="c()" onmouseover="s('bash`rl_filename_completion_function (349 bytes, 0.69%)')"><title>bash`rl_filename_completion_function (349 bytes, 0.69%)</title><rect width="8.2" height="25" x="1154.9" y="263" fill="#00E569" rx="2" ry="2"/></g><g class="func_g" onmouseout="c()" onmouseover="s('bash`alloc_undo_entry (100 bytes, 0.20%)')"><title>bash`alloc_undo_entry (100 bytes, 0.20%)</title><rect width="2.3" height="25" x="586.7" y="237" fill="#00C5D5" rx="2" ry="2"/></g><g class="func_g" onmouseout="c()" onmouseover="s('bash`rl_insert_text (100 bytes, 0.20%)')"><title>bash`rl_insert_text (100 bytes, 0.20%)</title><rect width="2.3" height="25" x="586.7" y="289" fill="#00D8E3" rx="2" ry="2"/></g><g class="func_g" onmouseout="c()" onmouseover="s('bash`malloc (2,304 bytes, 4.57%)')"><title>bash`malloc (2,304 bytes, 4.57%)</title><rect width="54" height="25" x="532.7" y="315" fill="#00E340" rx="2" ry="2"/><text x="535.723" y="334.5" fill="#000" font-family="Verdana" font-size="20">ba..</text></g><g class="func_g" onmouseout="c()" onmouseover="s('bash`malloc (40 bytes, 0.08%)')"><title>bash`malloc (40 bytes, 0.08%)</title><rect width=".9" height="25" x="1082.9" y="133" fill="#00E7B0" rx="2" ry="2"/></g><g class="func_g" onmouseout="c()" onmouseover="s('bash`strvec_strcmp (480 bytes, 0.95%)')"><title>bash`strvec_strcmp (480 bytes, 0.95%)</title><rect width="11.2" height="25" x="413.8" y="393" fill="#00EBE4" rx="2" ry="2"/></g><g class="func_g" onmouseout="c()" onmouseover="s('bash`malloc (20 bytes, 0.04%)')"><title>bash`malloc (20 bytes, 0.04%)</title><rect width=".5" height="25" x="589.5" y="159" fill="#00DD5C" rx="2" ry="2"/></g><g class="func_g" onmouseout="c()" onmouseover="s('bash`malloc (684 bytes, 1.36%)')"><title>bash`malloc (684 bytes, 1.36%)</title><rect width="16" height="25" x="1083.8" y="237" fill="#00D1AB" rx="2" ry="2"/></g><g class="func_g" onmouseout="c()" onmouseover="s('bash`execute_command_internal (17,728 bytes, 35.17%)')"><title>bash`execute_command_internal (17,728 bytes, 35.17%)</title><rect width="415" height="25" x="10" y="549" fill="#00E221" rx="2" ry="2"/><text x="13" y="568.5" fill="#000" font-family="Verdana" font-size="20">bash`execute_command_internal</text></g><g class="func_g" onmouseout="c()" onmouseover="s('bash`malloc (13 bytes, 0.03%)')"><title>bash`malloc (13 bytes, 0.03%)</title><rect width=".3" height="25" x="426.4" y="211" fill="#00C1CA" rx="2" ry="2"/></g><g class="func_g" onmouseout="c()" onmouseover="s('bash`check_add_history (2,389 bytes, 4.74%)')"><title>bash`check_add_history (2,389 bytes, 4.74%)</title><rect width="56" height="25" x="530.7" y="393" fill="#00C79B" rx="2" ry="2"/><text x="533.733" y="412.5" fill="#000" font-family="Verdana" font-size="20">ba..</text></g></svg>
